<svg id="Camada_2" data-name="Camada 2" xmlns="http://www.w3.org/2000/svg" viewBox="0 0 838.27 235.99"><defs><style>.cls-1{fill-rule:evenodd;}.cls-2{fill:#363333;}</style></defs><title>icones-b2make-3</title><rect y="44.47" width="30.3" height="20.87" rx="3.69"/><rect y="0.39" width="30.3" height="39.69" rx="3.74"/><rect x="34.23" y="0.39" width="30.77" height="20.87" rx="3.72"/><rect x="34.23" y="25.88" width="30.77" height="39.45" rx="3.76"/><g id="Camada_1-2" data-name="Camada 1-2"><path d="M138,31.3a2.53,2.53,0,1,0,3.6,0A2.57,2.57,0,0,0,138,31.3Z" transform="translate(-4.51 -17.14)"/><path d="M119.46,45a2.05,2.05,0,1,0-2.9,0,2,2,0,0,0,2.9,0Z" transform="translate(-4.51 -17.14)"/><path d="M119.48,61.82a2.05,2.05,0,0,0,0,2.9h0a2,2,0,0,0,2.85,0l0,0a2.05,2.05,0,1,0-2.9-2.9Z" transform="translate(-4.51 -17.14)"/><path d="M155.27,44.66l-3.68-16.11a1.9,1.9,0,0,0-2.29-1.41,1.84,1.84,0,0,0-.89.5l-1.85,1.84a1.91,1.91,0,0,0-.5,1.8A6.53,6.53,0,1,1,138,26.8a6.63,6.63,0,0,1,3.59,0,1.86,1.86,0,0,0,1.8-.5l1.9-1.85a1.9,1.9,0,0,0,0-2.68,2,2,0,0,0-.9-.5l-16.14-3.74a1.88,1.88,0,0,0-1.76.5L90.87,53.66a1.93,1.93,0,0,0,0,2.69l12.77,12.8L116.48,82a1.93,1.93,0,0,0,2.68,0l35.63-35.56A1.9,1.9,0,0,0,155.27,44.66ZM113.8,39.31a5.95,5.95,0,1,1,.08,8.41.3.3,0,0,0-.08-.08A6,6,0,0,1,113.8,39.31Zm11.34,28.18a6,6,0,1,1,0-8.43h0a5.94,5.94,0,0,1,0,8.41Zm8.48-13.68a1.8,1.8,0,0,1-1.8,1.8H106.36a1.79,1.79,0,0,1-1.8-1.8v-.53a1.8,1.8,0,0,1,1.8-1.8h25.46a1.81,1.81,0,0,1,1.8,1.8Z" transform="translate(-4.51 -17.14)"/></g><g id="Camada_1-2-2" data-name="Camada 1-2"><path d="M211.3,45.05V81.9l30.13-12.13V33Zm25.55,19.37a2.45,2.45,0,0,1-.2.88,1.56,1.56,0,0,1-.27.4,1.41,1.41,0,0,1-.23.35,2.06,2.06,0,0,1-.74.5l-7,2.92a2.32,2.32,0,1,1-1.77-4.29l5.52-2.31V57.45a2.33,2.33,0,1,1,4.65-.39,2.54,2.54,0,0,1,0,.39Z" transform="translate(-4.51 -17.14)"/><polygon points="187.6 7.76 175.85 12.41 204.45 23.85 216.22 19.16 187.6 7.76"/><polygon points="233.07 12.41 204.45 0.96 193.85 5.21 222.47 16.65 233.07 12.41"/><polygon points="171.92 52.66 202.13 64.75 202.13 27.93 171.92 15.83 171.92 52.66"/></g><path d="M275.26,36.07a8,8,0,0,0,6.13-2.71,9.32,9.32,0,0,0,2.52-6.58,9.29,9.29,0,0,0-2.53-6.57,8.24,8.24,0,0,0-12.25,0,9.27,9.27,0,0,0-2.55,6.57,9.27,9.27,0,0,0,2.55,6.58A8,8,0,0,0,275.26,36.07Z" transform="translate(-4.51 -17.14)"/><path d="M285.57,50.59a12.33,12.33,0,0,0,18.33,0,13.94,13.94,0,0,0,3.89-9.89,13.9,13.9,0,0,0-3.89-9.84,12.33,12.33,0,0,0-18.33,0,14,14,0,0,0-3.81,9.84A14,14,0,0,0,285.57,50.59Z" transform="translate(-4.51 -17.14)"/><path d="M314.28,36.07a8,8,0,0,0,6.13-2.71A9.23,9.23,0,0,0,323,26.78a9.22,9.22,0,0,0-2.55-6.57,8.23,8.23,0,0,0-12.22,0l0,0a9.26,9.26,0,0,0-2.58,6.57,9.38,9.38,0,0,0,2.53,6.58A8.12,8.12,0,0,0,314.28,36.07Z" transform="translate(-4.51 -17.14)"/><path d="M323.1,36.07a5.89,5.89,0,0,0-1.47.77,21.82,21.82,0,0,1-3.33,1.54,11.19,11.19,0,0,1-4,.78,12.82,12.82,0,0,1-4.5-.84,19.35,19.35,0,0,1,.16,2.4,16.94,16.94,0,0,1-2.69,9.3,11.38,11.38,0,0,1,9,4.65h4.51a7.42,7.42,0,0,0,4.67-1.47,5.1,5.1,0,0,0,1.83-4.3Q327.23,36.08,323.1,36.07Z" transform="translate(-4.51 -17.14)"/><path d="M318,65.44a29.07,29.07,0,0,0-.9-3.93,19.18,19.18,0,0,0-1.45-3.58,12.8,12.8,0,0,0-2.1-2.94,8.67,8.67,0,0,0-2.9-2,9.46,9.46,0,0,0-3.78-.73,3.93,3.93,0,0,0-1.45.78L303,54.88a14.2,14.2,0,0,1-3.62,1.79,13.78,13.78,0,0,1-9.14,0,14.49,14.49,0,0,1-3.64-1.79l-2.46-1.79a4,4,0,0,0-1.47-.78,9.5,9.5,0,0,0-3.78.73A8.59,8.59,0,0,0,276,55a12.59,12.59,0,0,0-2.07,3,21.71,21.71,0,0,0-1.45,3.57,32.89,32.89,0,0,0-.9,3.93,37.69,37.69,0,0,0-.46,4c0,1.21-.12,2.46-.12,3.75A9.44,9.44,0,0,0,273.4,80,8.73,8.73,0,0,0,280,82.51h29.62A8.74,8.74,0,0,0,316.15,80a9.44,9.44,0,0,0,2.48-6.89c0-1.29,0-2.54-.11-3.75S318.25,66.73,318,65.44Z" transform="translate(-4.51 -17.14)"/><path d="M282.34,50a16.91,16.91,0,0,1-2.75-9.32c0-.8.07-1.6.17-2.4a12.64,12.64,0,0,1-4.5.84,11.19,11.19,0,0,1-4-.78,21.82,21.82,0,0,1-3.33-1.54,6.38,6.38,0,0,0-1.49-.77q-4.16,0-4.16,12.85a5.1,5.1,0,0,0,1.9,4.3,7.39,7.39,0,0,0,4.66,1.47h4.55A11.38,11.38,0,0,1,282.34,50Z" transform="translate(-4.51 -17.14)"/><g id="Camada_1-2-3" data-name="Camada 1-2"><g id="palette"><path d="M380.33,17.14a32.87,32.87,0,0,0,0,65.72,5.64,5.64,0,0,0,5.48-5.48,4.7,4.7,0,0,0-1.46-3.65,6.44,6.44,0,0,1-1.42-3.65,5.61,5.61,0,0,1,5.47-5.48H395A18.1,18.1,0,0,0,413.2,46.67v-.33C413.2,30.29,398.59,17.14,380.33,17.14ZM360.25,50a5.47,5.47,0,1,1,5.47-5.47A5.47,5.47,0,0,1,360.25,50Zm11-14.6a5.63,5.63,0,0,1-5.49-5.47,5.48,5.48,0,1,1,5.49,5.47Zm18.25,0A5.6,5.6,0,0,1,384,29.92a5.47,5.47,0,0,1,10.94,0h0A5.6,5.6,0,0,1,389.46,35.39Zm11,14.6a5.62,5.62,0,0,1-5.49-5.47,5.49,5.49,0,0,1,11,0A5.6,5.6,0,0,1,400.42,50Z" transform="translate(-4.51 -17.14)"/></g></g><g id="Camada_1-2-4" data-name="Camada 1-2"><path class="cls-1" d="M499,46.35a2.15,2.15,0,0,0-2.11-1.67A7.19,7.19,0,0,1,492,32.18a1.79,1.79,0,0,0,.2-2.44A32.47,32.47,0,0,0,487,24.53a1.85,1.85,0,0,0-2.47.2,7.5,7.5,0,0,1-8.12,1.82,7.21,7.21,0,0,1-4.39-7,1.78,1.78,0,0,0-1.59-1.84,31.91,31.91,0,0,0-7.31,0,1.8,1.8,0,0,0-1.67,1.85A7.24,7.24,0,0,1,457,26.45a7.54,7.54,0,0,1-8-1.83,1.81,1.81,0,0,0-2.45-.22,32.75,32.75,0,0,0-5.25,5.21,1.82,1.82,0,0,0,.19,2.47,7.19,7.19,0,0,1,1.82,8.1,7.53,7.53,0,0,1-7.08,4.4,1.76,1.76,0,0,0-1.87,1.66h0a32.61,32.61,0,0,0,0,7.39,2.13,2.13,0,0,0,2.13,1.59,7.11,7.11,0,0,1,6.68,4.46,7.19,7.19,0,0,1-1.82,8,1.82,1.82,0,0,0-.18,2.46,32.48,32.48,0,0,0,5.14,5.21,1.85,1.85,0,0,0,2.48-.2,7.45,7.45,0,0,1,8.1-1.82,7.18,7.18,0,0,1,4.39,7,1.82,1.82,0,0,0,1.67,1.9,35.91,35.91,0,0,0,3.74.22,32.72,32.72,0,0,0,3.57-.2,1.8,1.8,0,0,0,1.67-1.86,7.27,7.27,0,0,1,4.45-6.94,7.49,7.49,0,0,1,7.86,1.77,1.81,1.81,0,0,0,2.46.2,31.56,31.56,0,0,0,5.26-5.2,1.81,1.81,0,0,0-.18-2.47,7.18,7.18,0,0,1-1.84-8.1,7.3,7.3,0,0,1,6.68-4.41h.4a1.8,1.8,0,0,0,1.9-1.59A33.2,33.2,0,0,0,499,46.35ZM466.7,60.88A10.86,10.86,0,1,1,477.57,50,10.86,10.86,0,0,1,466.7,60.88Z" transform="translate(-4.51 -17.14)"/></g><circle cx="525.59" cy="24.11" r="6.64"/><path d="M534.58,50.84a6.62,6.62,0,0,1-9.05-.08A5.69,5.69,0,0,0,520,56.45v8.94h19.31V56.45A5.7,5.7,0,0,0,534.58,50.84Z" transform="translate(-4.51 -17.14)"/><circle cx="548.44" cy="24.11" r="6.64"/><path d="M557.42,50.84a6.53,6.53,0,0,1-4.48,1.75,6.62,6.62,0,0,1-4.56-1.83,5.69,5.69,0,0,0-5.56,5.69v8.94h19.3V56.45A5.7,5.7,0,0,0,557.42,50.84Z" transform="translate(-4.51 -17.14)"/><circle cx="571.28" cy="24.11" r="6.64"/><path d="M580.27,50.84a6.6,6.6,0,0,1-9-.08,5.69,5.69,0,0,0-5.57,5.69v8.94H585V56.45A5.7,5.7,0,0,0,580.27,50.84Z" transform="translate(-4.51 -17.14)"/><path d="M631.12,56.9a1.79,1.79,0,1,0,1.78,1.79A1.77,1.77,0,0,0,631.12,56.9Z" transform="translate(-4.51 -17.14)"/><path d="M628.22,47.29a1.79,1.79,0,1,0-1.79-1.79A1.79,1.79,0,0,0,628.22,47.29Z" transform="translate(-4.51 -17.14)"/><path d="M667.77,37.59l-.12-.12a28.76,28.76,0,0,0-9.18-5.84c-.68-.28-1.35-.54-2-.77v-.05a5.44,5.44,0,0,0-5.37-5.37l-14.45-.21a7,7,0,0,0-5.11,2.07L607.39,51.42a5,5,0,0,0,0,7l16,16a5,5,0,0,0,7.05,0l24.12-24.12a6.89,6.89,0,0,0,1.57-2.4A25.5,25.5,0,0,0,663,49c5.13,0,6.84-2.28,7.4-3.62S671.37,41.26,667.77,37.59Zm-42.61,4.86a4.31,4.31,0,1,1,0,6.1A4.34,4.34,0,0,1,625.16,42.45Zm9,19.3a4.31,4.31,0,1,1,0-6.1A4.32,4.32,0,0,1,634.17,61.75Zm4.41-9.42L620.92,54a1,1,0,0,1-.2-2.09l17.66-1.64a1,1,0,1,1,.2,2.09Zm28-8.55c-.46,1.07-5.32,2-12.7-1.05A28.28,28.28,0,0,1,648,39.5c-.07.06-.12.13-.19.2A4.12,4.12,0,1,1,649,37.39a28.42,28.42,0,0,0,5.5,3q1.07.45,2.07.78l-.07-5.8a3.84,3.84,0,0,0,.36.14,25.07,25.07,0,0,1,7.82,4.93l.09.09C666.51,42.3,666.7,43.43,666.55,43.78Z" transform="translate(-4.51 -17.14)"/><rect x="773.27" y="42.32" width="18.86" height="19.8" rx="2.83"/><rect x="773.27" y="18.77" width="18.86" height="19.8" rx="2.83"/><rect x="796.34" y="30.78" width="18.86" height="31.34" rx="2.83"/><rect x="796.34" y="12.45" width="18.86" height="15.04" rx="2.83"/><rect x="819.41" y="46.45" width="18.86" height="15.67" rx="2.83"/><rect x="819.41" y="3.6" width="18.86" height="38.08" rx="2.83"/><path d="M733.4,47a77.65,77.65,0,0,0-7.95-3.59A17,17,0,0,1,721.08,41c-2.6-2-2.1-5.41.94-6.74a7.61,7.61,0,0,1,2.67-.54,20.18,20.18,0,0,1,10,2c1.6.78,2.13.53,2.65-1.12s1-3.51,1.56-5.27a1.87,1.87,0,0,0-1.21-2.47,26.09,26.09,0,0,0-6.33-1.9c-2.88-.43-2.86-.45-2.88-3.33,0-4.07,0-4.07-4.09-4.07-.6,0-1.19,0-1.78,0-1.92,0-2.24.39-2.29,2.31V22.4c0,2.56,0,2.51-2.47,3.4C712,28,708.33,32,707.94,38.42c-.34,5.71,2.63,9.55,7.32,12.36,2.87,1.73,6.07,2.76,9.14,4.11a14.29,14.29,0,0,1,3.33,2,4.56,4.56,0,0,1-1.1,8,11,11,0,0,1-5.87.78A25.94,25.94,0,0,1,711.83,63c-1.65-.84-2.13-.61-2.7,1.17-.5,1.53-.91,3.11-1.35,4.66-.57,2.1-.36,2.6,1.63,3.56a27.59,27.59,0,0,0,8,2.31c2.17.34,2.24.44,2.26,2.7,0,1,0,2,0,3.06a1.84,1.84,0,0,0,2,2.06c1.51,0,3,0,4.52,0a1.73,1.73,0,0,0,1.88-2c0-1.39.06-2.81,0-4.2A2.19,2.19,0,0,1,730,73.81a15.4,15.4,0,0,0,7.9-5.08C743.66,61.77,741.46,51.55,733.4,47Z" transform="translate(-4.51 -17.14)"/><path d="M37,102.81a32.5,32.5,0,1,0,32.5,32.5A32.5,32.5,0,0,0,37,102.81Zm14.67,21.45L35.83,149.71a3.18,3.18,0,0,1-2.55,1.49h-.14A3.16,3.16,0,0,1,30.62,150l-8.11-10.72a3.16,3.16,0,1,1,5-3.82l5.34,7.05,13.42-21.55a3.16,3.16,0,1,1,5.37,3.35Z" transform="translate(-4.51 -17.14)"/><path d="M122.82,102.81a32.5,32.5,0,1,0,32.5,32.5A32.5,32.5,0,0,0,122.82,102.81Zm12.47,40.92a2.86,2.86,0,0,1-4,4l-8.42-8.41-8.42,8.41a2.86,2.86,0,1,1-4-4l8.42-8.42-8.42-8.42a2.86,2.86,0,1,1,4-4l8.42,8.42,8.42-8.42a2.86,2.86,0,0,1,4,4l-8.42,8.42Z" transform="translate(-4.51 -17.14)"/><path d="M240.81,164.23l-14.07-14.07a28.57,28.57,0,1,0-3,3l14.07,14.07a2.22,2.22,0,0,0,1.48.61,2.16,2.16,0,0,0,1.48-.61A2.08,2.08,0,0,0,240.81,164.23Zm-20-14.07a24,24,0,0,1-15.72,5.8,24.48,24.48,0,1,1,24.48-24.48,24.19,24.19,0,0,1-5.79,15.72A18.9,18.9,0,0,1,220.81,150.16Z" transform="translate(-4.51 -17.14)"/><path d="M321.82,129.8H300.25V108.23a5.42,5.42,0,0,0-5.42-5.42h-.18a5.42,5.42,0,0,0-5.42,5.42V129.8H267.66a5.42,5.42,0,0,0-5.42,5.42v.18a5.42,5.42,0,0,0,5.42,5.42h21.57v21.57a5.41,5.41,0,0,0,5.42,5.42h.18a5.41,5.41,0,0,0,5.42-5.42V140.82h21.57a5.42,5.42,0,0,0,5.42-5.42v-.18A5.42,5.42,0,0,0,321.82,129.8Z" transform="translate(-4.51 -17.14)"/><path d="M400.24,149.13l-18.08,18.08a2,2,0,0,1-2.89,0l-18.13-18.12a2.83,2.83,0,0,1,0-4h0a5.16,5.16,0,0,1,7.31,0l8.25,8.24V106.78a4,4,0,0,1,4-4h0a4,4,0,0,1,4,4v46.56l8.27-8.26a5.16,5.16,0,0,1,7.29,0h0a2.86,2.86,0,0,1,0,4" transform="translate(-4.51 -17.14)"/><path d="M436.2,165.76a7,7,0,0,0,9.88,0l20.58-20.57,20.57,20.57a7,7,0,0,0,9.88-9.88l-20.57-20.57,20.57-20.57a7,7,0,1,0-9.88-9.88l-20.57,20.57-20.58-20.57a7,7,0,0,0-9.88,9.88l20.58,20.57L436.2,155.88A7,7,0,0,0,436.2,165.76Z" transform="translate(-4.51 -17.14)"/><g id="Delete_Trash" data-name="Delete / Trash"><path class="cls-1" d="M535.25,163.4a5.9,5.9,0,0,0,6,4.41h22.54a5.9,5.9,0,0,0,6-4.41l4.45-43.26H530.8Zm25.89-36.76a2.17,2.17,0,0,1,4.33,0l-2.17,32.5a2.17,2.17,0,1,1-4.33,0Zm-10.84,0a2.17,2.17,0,0,1,4.34,0v32.5a2.17,2.17,0,1,1-4.34,0Zm-8.66-2.16a2.16,2.16,0,0,1,2.16,2.16l2.17,32.5a2.17,2.17,0,1,1-4.33,0l-2.17-32.5A2.17,2.17,0,0,1,541.64,124.48Zm31.2-13H563.3v-4.34c0-3.28-1.06-4.33-4.33-4.33H546c-3,0-4.33,1.45-4.33,4.33v4.34H532.1a3.26,3.26,0,1,0,0,6.5h40.74a3.26,3.26,0,1,0,0-6.5Zm-13.87,0H546v-4.34h13v4.34Z" transform="translate(-4.51 -17.14)"/></g><path d="M623.27,131.7h30.32a3.3,3.3,0,0,0,2.73-5.17L641,104.1a3,3,0,0,0-4.87,0l-15.55,22.43a3.31,3.31,0,0,0,2.72,5.19Z" transform="translate(-4.51 -17.14)"/><path d="M653.59,138.92H623.27a3.31,3.31,0,0,0-2.72,5.19l15.55,22.43a3,3,0,0,0,4.87,0l15.35-22.43a3.3,3.3,0,0,0-2.73-5.17Z" transform="translate(-4.51 -17.14)"/><path d="M729.81,164.91l27-29.62-27-29.62v17.67h-5.74A32.23,32.23,0,0,0,697,138h0c-.12.17-.23.35-.34.53l0,.06c-.11.17-.21.35-.31.52l-.05.07c-.1.18-.2.36-.31.53v0c-.42.75-.81,1.52-1.18,2.3a.61.61,0,0,1,0,.12l-.22.48a1.42,1.42,0,0,1-.08.18c-.06.16-.13.31-.19.46l-.09.21-.18.45a1.43,1.43,0,0,1-.08.22c-.06.15-.11.31-.17.46l-.06.18c-.13.36-.26.73-.37,1.1l0,0-.12.41-.09.3c0,.13-.07.26-.11.39l-.09.33-.09.38-.09.36-.09.36c0,.13-.05.25-.08.38s0,.23-.07.35l-.09.43c0,.1,0,.2,0,.31l-.12.72,0,.23c0,.17-.06.35-.08.52l0,.3-.06.47,0,.31c0,.15,0,.31,0,.46s0,.21,0,.32l0,.47c0,.1,0,.2,0,.3s0,.35,0,.52,0,.17,0,.26c0,.26,0,.52,0,.78V165l2.55-2.79a45.77,45.77,0,0,1,33.81-14.92h1.63v17.67Z" transform="translate(-4.51 -17.14)"/><path d="M836.23,118.86h-6.57V106.33a3.53,3.53,0,0,0-3.52-3.52H794.42a3.52,3.52,0,0,0-3.51,3.52v12.53h-6.58a5.48,5.48,0,0,0-5.47,5.47v24a5.48,5.48,0,0,0,5.47,5.46h6.58V164.3a3.52,3.52,0,0,0,3.51,3.51h31.72a3.52,3.52,0,0,0,3.52-3.51V153.75h6.57a5.45,5.45,0,0,0,5.47-5.45v-24A5.48,5.48,0,0,0,836.23,118.86Zm-47.1,10.28a1.35,1.35,0,0,1-.93.39,1.37,1.37,0,0,1-.93-.39,1.32,1.32,0,0,1,0-1.85,1.37,1.37,0,0,1,.93-.39,1.32,1.32,0,0,1,.93,2.24Zm4.4-22.81a.89.89,0,0,1,.89-.89h31.72a.89.89,0,0,1,.89.89v12.53h-33.5Zm32.62,58.85H794.42a.88.88,0,0,1-.89-.88V137.63H827V164.3h0A.88.88,0,0,1,826.15,165.18Z" transform="translate(-4.51 -17.14)"/><path d="M65.81,198.79a4.46,4.46,0,0,0-3.26-1.38H57.9v-3.48a5.82,5.82,0,0,0-5.8-5.81H49.78a5.82,5.82,0,0,0-5.8,5.81v3.48H30.05v-3.48a5.84,5.84,0,0,0-5.81-5.81H21.92a5.82,5.82,0,0,0-5.8,5.81v3.48H11.48a4.47,4.47,0,0,0-3.27,1.38,4.45,4.45,0,0,0-1.38,3.26v46.43a4.43,4.43,0,0,0,1.38,3.26,4.47,4.47,0,0,0,3.27,1.38H62.55a4.71,4.71,0,0,0,4.64-4.64V202.05A4.45,4.45,0,0,0,65.81,198.79ZM21.92,248.48H11.48V238H21.92Zm0-12.77H11.48v-11.6H21.92Zm0-13.93H11.48V211.34H21.92Zm-.81-16.59a1.12,1.12,0,0,1-.35-.82V193.93a1.12,1.12,0,0,1,.35-.82,1.1,1.1,0,0,1,.81-.34h2.32a1.16,1.16,0,0,1,1.16,1.16v10.44a1.16,1.16,0,0,1-1.16,1.16H21.92A1.1,1.1,0,0,1,21.11,205.19Zm14.74,43.29H24.24V238H35.85v10.45Zm0-12.77H24.24v-11.6H35.85v11.6Zm0-13.93H24.24V211.34H35.85v10.44Zm13.93,26.7H38.17V238H49.78Zm0-12.77H38.17v-11.6H49.78Zm0-13.93H38.17V211.34H49.78ZM49,205.19a1.11,1.11,0,0,1-.34-.82V193.93a1.16,1.16,0,0,1,1.16-1.16H52.1a1.16,1.16,0,0,1,1.16,1.16v10.44a1.16,1.16,0,0,1-1.16,1.16H49.78A1.11,1.11,0,0,1,49,205.19Zm13.59,43.29H52.1V238H62.55Zm0-12.77H52.1v-11.6H62.55Zm0-13.93H52.1V211.34H62.55Z" transform="translate(-4.51 -17.14)"/><path class="cls-2" d="M131.62,188.12l-7.76,7.77,3.59,3.59-2.69,2.69-3.59-3.59L90.32,229.42l6.83,6.83a7.52,7.52,0,0,1,8.6,1.45L143.47,200ZM110,230.19l-2.69-2.69,16.86-16.86,2.69,2.7Zm17.87-24.91,2.69-2.69,3.59,3.59-2.69,2.69Z" transform="translate(-4.51 -17.14)"/><path d="M143.47,200,105.75,237.7a7.51,7.51,0,0,1,1.45,8.6l6.82,6.82,30.85-30.84-3.6-3.59L144,216l3.6,3.6h0l7.76-7.77Zm-27.53,36.16-2.69-2.69,16.86-16.85,2.69,2.69Zm22.22-20.55-3.59-3.6,2.69-2.69,3.6,3.6Z" transform="translate(-4.51 -17.14)"/><path class="cls-2" d="M216.51,210.55l-3.45-3.46,1.29-1.3-3-3-1.3,1.3-3.45-3.46-29.68,29.68,6.56,6.56a7.24,7.24,0,0,1,8.28,1.4l27.54-27.53-1.5-1.5Zm-20.64,20.51-2.59-2.59,16.22-16.22,2.59,2.59Z" transform="translate(-4.51 -17.14)"/><polygon class="cls-2" points="225.94 170.99 215.95 174.42 217.54 179.04 215.81 179.64 217.18 183.64 218.91 183.04 220.5 187.67 218.77 188.26 219.46 190.26 231.18 186.24 225.94 170.99"/><path d="M227.25,218.69l-3-3L223,217l-3.46-3.45,1.29-1.3-1.49-1.49-27.54,27.53a7.23,7.23,0,0,1,1.4,8.28l6.57,6.56,29.67-29.68L226,220Zm-25.67,18.08L199,234.18,215.21,218l2.6,2.6Z" transform="translate(-4.51 -17.14)"/><polygon points="231.18 186.24 219.46 190.26 220.14 192.26 221.87 191.67 223.46 196.29 221.73 196.89 223.1 200.89 224.84 200.29 226.42 204.92 236.42 201.49 231.18 186.24"/><path d="M270.23,212.63a8,8,0,1,0,8,8A8,8,0,0,0,270.23,212.63Z" transform="translate(-4.51 -17.14)"/><path d="M319.25,212.63a8,8,0,1,0,8,8A8,8,0,0,0,319.25,212.63Z" transform="translate(-4.51 -17.14)"/><path d="M294.74,212.63a8,8,0,1,0,8,8A8,8,0,0,0,294.74,212.63Z" transform="translate(-4.51 -17.14)"/><path d="M398.45,215.5l-25.26-25.26A7.24,7.24,0,0,0,363,200.48l20.14,20.14L363,240.76A7.24,7.24,0,0,0,373.19,251l25.26-25.26A7.24,7.24,0,0,0,398.45,215.5Z" transform="translate(-4.51 -17.14)"/></svg>