<svg xmlns="http://www.w3.org/2000/svg" xmlns:xlink="http://www.w3.org/1999/xlink" id="Layer_1" x="0px" y="0px" viewBox="0 0 1664.65 709.32" style="enable-background:new 0 0 1664.65 709.32;" xml:space="preserve"> <style type="text/css"> .st0{fill:#3083F1;} .st1{fill:#FFFFFF;} </style> <path class="st0" d="M1392.8,331.6c-7.61-34.59,17.43-69.31,58.96-87.16l0-0.13l-28.6-140.28 c-335.26,59.96-733.02,75.76-1204.89,39.74L196.8,282.21c46.51,13.74,77.14,47.97,71.72,84.73c-5.4,37.03-45.51,64.61-95.36,68.93 l-21.33,137.77c437.9,48.67,890.63,40.04,1360.16-32.93l-30.11-147.87C1436.96,388.83,1400.37,365.25,1392.8,331.6z"></path> <g> <path class="st1" d="M365.25,323.68c7.13-12.35,17.1-22.1,29.88-29.24c12.78-7.13,27.27-10.71,43.46-10.71 c15.12,0,28.81,3.52,41.06,10.55c12.25,7.03,21.83,17.1,28.76,30.2c6.92,13.1,10.39,28.5,10.39,46.18v11.82H413.99 c1.7,7.09,5.48,13.01,11.34,17.78c5.86,4.77,13.37,7.15,22.53,7.15c6.39,0,12.83-1.01,19.33-3.04c6.5-2.02,11.66-4.63,15.5-7.83 l23.65,32.42c-7.24,5.41-16.94,9.57-29.08,12.46c-12.14,2.89-24.4,4.34-36.75,4.34c-16.19,0-30.79-3.25-43.78-9.75 c-13-6.5-23.28-15.87-30.84-28.12c-7.56-12.25-11.34-26.68-11.34-43.3C354.55,349.67,358.11,336.04,365.25,323.68z M421.18,328.74 c-3.94,4.43-6.38,9.57-7.3,15.39h50.28c-1.07-5.57-3.57-10.64-7.51-15.2c-3.94-4.56-9.96-6.85-18.06-6.85 C430.92,322.08,425.12,324.3,421.18,328.74z"></path> <path class="st1" d="M643.11,347.96c0-16.19-7.46-24.28-22.37-24.28c-5.75,0-10.5,1.23-14.22,3.69c-3.73,2.47-7.19,5.69-10.39,9.68 v104.86h-57.52V287.57h57.52v17.58c5.32-5.96,12.41-11.02,21.25-15.18c8.84-4.15,19.44-6.23,31.8-6.23 c17.04,0,29.88,4.53,38.51,13.58c8.63,9.06,12.94,20.72,12.94,34.99v109.61h-57.52V347.96z"></path> <path class="st1" d="M757.99,432.32c-9.06-8.95-13.58-22.15-13.58-39.59v-65.22h-25.56v-39.94h25.56v-42.18h57.52v42.18h31.32 v39.94h-31.32v58.72c0,5.51,1.17,10.15,3.51,13.92c2.34,3.77,5.43,5.65,9.27,5.65c2.34,0,4.68-0.32,7.03-0.96 c2.34-0.64,3.83-1.28,4.47-1.92l10.23,34.78c-3.2,2.35-8.2,4.27-15.02,5.78c-6.82,1.51-14.81,2.26-23.97,2.26 C780.19,445.75,767.04,441.28,757.99,432.32z"></path> <path class="st1" d="M854.65,287.57h57.52v17.58c4.9-5.75,11.87-10.75,20.93-15.02c9.05-4.26,17.84-6.39,26.36-6.39v52.73 c-3.2-1.06-7.56-1.6-13.1-1.6c-6.82,0-13.48,0.93-19.97,2.78c-6.5,1.85-11.24,4.62-14.22,8.32v95.96h-57.52V287.57z"></path> <path class="st1" d="M979.43,323.68c7.13-12.35,17.1-22.1,29.88-29.24c12.78-7.13,27.27-10.71,43.46-10.71 c15.12,0,28.81,3.52,41.06,10.55c12.25,7.03,21.83,17.1,28.76,30.2c6.92,13.1,10.39,28.5,10.39,46.18v11.82h-104.81 c1.7,7.09,5.48,13.01,11.34,17.78c5.86,4.77,13.37,7.15,22.53,7.15c6.39,0,12.83-1.01,19.33-3.04c6.5-2.02,11.66-4.63,15.5-7.83 l23.65,32.42c-7.25,5.41-16.94,9.57-29.08,12.46c-12.14,2.89-24.4,4.34-36.75,4.34c-16.19,0-30.79-3.25-43.78-9.75 c-13-6.5-23.28-15.87-30.84-28.12c-7.56-12.25-11.34-26.68-11.34-43.3C968.73,349.67,972.29,336.04,979.43,323.68z M1035.35,328.74 c-3.94,4.43-6.38,9.57-7.3,15.39h50.29c-1.07-5.57-3.57-10.64-7.51-15.2c-3.94-4.56-9.96-6.85-18.05-6.85 C1045.1,322.08,1039.29,324.3,1035.35,328.74z"></path> <path class="st1" d="M1175.16,447.67c4.9,5.75,11.66,10.01,20.29,12.78c8.63,2.77,17.2,4.15,25.72,4.15 c11.5,0,20.34-3.66,26.52-10.96c6.18-7.31,9.27-16.76,9.27-28.35v-10.86c-5.33,5.97-12.41,10.97-21.25,15.02 c-8.84,4.05-19.44,6.07-31.8,6.07c-17.05,0-29.83-4.47-38.35-13.42c-8.52-8.95-12.78-20.45-12.78-34.51V287.57h57.52v83.85 c0,16.11,7.46,24.16,22.37,24.16c5.75,0,10.44-1.24,14.06-3.73c3.62-2.49,7.03-5.74,10.23-9.77v-94.51h57.52v131.66 c0,26.63-8.1,47.5-24.29,62.63c-16.19,15.12-39.2,22.69-69.02,22.69c-27.48,0-50.92-6.52-70.3-19.56L1175.16,447.67z"></path> </g> </svg>