<?xml version="1.0" encoding="UTF-8" standalone="no"?>
<!-- Created with Inkscape (http://www.inkscape.org/) -->

<svg
   version="1.1"
   id="svg1"
   width="839"
   height="358"
   viewBox="0 0 839 358"
   sodipodi:docname="Logomarca.svg"
   inkscape:version="1.3.2 (091e20e, 2023-11-25, custom)"
   xmlns:inkscape="http://www.inkscape.org/namespaces/inkscape"
   xmlns:sodipodi="http://sodipodi.sourceforge.net/DTD/sodipodi-0.dtd"
   xmlns:xlink="http://www.w3.org/1999/xlink"
   xmlns="http://www.w3.org/2000/svg"
   xmlns:svg="http://www.w3.org/2000/svg">
  <defs
     id="defs1">
    <linearGradient
       id="swatch22">
      <stop
         style="stop-color:#000000;stop-opacity:1"
         offset="0.82113677"
         id="stop24" />
      <stop
         style="stop-color:#bbbbbd;stop-opacity:1;"
         offset="1"
         id="stop23" />
    </linearGradient>
    <linearGradient
       id="linearGradient15"
       inkscape:collect="always">
      <stop
         style="stop-color:#e6e6e6;stop-opacity:1;"
         offset="0"
         id="stop15" />
      <stop
         style="stop-color:#b4b4b4;stop-opacity:1;"
         offset="1"
         id="stop16" />
    </linearGradient>
    <linearGradient
       inkscape:collect="always"
       xlink:href="#linearGradient15"
       id="linearGradient16"
       x1="24.6003"
       y1="21.744905"
       x2="818.83856"
       y2="335.39874"
       gradientUnits="userSpaceOnUse" />
    <filter
       style="color-interpolation-filters:sRGB;"
       inkscape:label="Drop Shadow"
       id="filter67"
       x="-0.034389269"
       y="-0.042456631"
       width="1.075943"
       height="1.0937584">
      <feFlood
         result="flood"
         in="SourceGraphic"
         flood-opacity="0.498039"
         flood-color="rgb(0,0,0)"
         id="feFlood66" />
      <feGaussianBlur
         result="blur"
         in="SourceGraphic"
         stdDeviation="2.000000"
         id="feGaussianBlur66" />
      <feOffset
         result="offset"
         in="blur"
         dx="1.000000"
         dy="1.000000"
         id="feOffset66" />
      <feComposite
         result="comp1"
         operator="out"
         in="flood"
         in2="offset"
         id="feComposite66" />
      <feComposite
         result="comp2"
         operator="atop"
         in="comp1"
         in2="SourceGraphic"
         id="feComposite67" />
    </filter>
    <filter
       style="color-interpolation-filters:sRGB;"
       inkscape:label="Drop Shadow"
       id="filter69"
       x="-0.036573545"
       y="-0.035568773"
       width="1.0807666"
       height="1.0785477">
      <feFlood
         result="flood"
         in="SourceGraphic"
         flood-opacity="0.498039"
         flood-color="rgb(0,0,0)"
         id="feFlood67" />
      <feGaussianBlur
         result="blur"
         in="SourceGraphic"
         stdDeviation="2.000000"
         id="feGaussianBlur67" />
      <feOffset
         result="offset"
         in="blur"
         dx="1.000000"
         dy="1.000000"
         id="feOffset67" />
      <feComposite
         result="comp1"
         operator="out"
         in="flood"
         in2="offset"
         id="feComposite68" />
      <feComposite
         result="comp2"
         operator="atop"
         in="comp1"
         in2="SourceGraphic"
         id="feComposite69" />
    </filter>
    <filter
       style="color-interpolation-filters:sRGB;"
       inkscape:label="Drop Shadow"
       id="filter72"
       x="-0.032888967"
       y="-0.030795852"
       width="1.0726298"
       height="1.0680075">
      <feFlood
         result="flood"
         in="SourceGraphic"
         flood-opacity="0.498039"
         flood-color="rgb(0,0,0)"
         id="feFlood71" />
      <feGaussianBlur
         result="blur"
         in="SourceGraphic"
         stdDeviation="2.000000"
         id="feGaussianBlur71" />
      <feOffset
         result="offset"
         in="blur"
         dx="1.000000"
         dy="1.000000"
         id="feOffset71" />
      <feComposite
         result="comp1"
         operator="out"
         in="flood"
         in2="offset"
         id="feComposite71" />
      <feComposite
         result="comp2"
         operator="atop"
         in="comp1"
         in2="SourceGraphic"
         id="feComposite72" />
    </filter>
    <filter
       style="color-interpolation-filters:sRGB;"
       inkscape:label="Drop Shadow"
       id="filter74"
       x="-0.049758623"
       y="-0.067810646"
       width="1.1098836"
       height="1.1497485">
      <feFlood
         result="flood"
         in="SourceGraphic"
         flood-opacity="0.498039"
         flood-color="rgb(0,0,0)"
         id="feFlood72" />
      <feGaussianBlur
         result="blur"
         in="SourceGraphic"
         stdDeviation="2.000000"
         id="feGaussianBlur72" />
      <feOffset
         result="offset"
         in="blur"
         dx="1.000000"
         dy="1.000000"
         id="feOffset72" />
      <feComposite
         result="comp1"
         operator="out"
         in="flood"
         in2="offset"
         id="feComposite73" />
      <feComposite
         result="comp2"
         operator="atop"
         in="comp1"
         in2="SourceGraphic"
         id="feComposite74" />
    </filter>
    <filter
       style="color-interpolation-filters:sRGB;"
       inkscape:label="Drop Shadow"
       id="filter76"
       x="-0.098938702"
       y="-0.052895876"
       width="1.2184896"
       height="1.1168117">
      <feFlood
         result="flood"
         in="SourceGraphic"
         flood-opacity="0.498039"
         flood-color="rgb(0,0,0)"
         id="feFlood74" />
      <feGaussianBlur
         result="blur"
         in="SourceGraphic"
         stdDeviation="2.000000"
         id="feGaussianBlur74" />
      <feOffset
         result="offset"
         in="blur"
         dx="1.000000"
         dy="1.000000"
         id="feOffset74" />
      <feComposite
         result="comp1"
         operator="out"
         in="flood"
         in2="offset"
         id="feComposite75" />
      <feComposite
         result="comp2"
         operator="atop"
         in="comp1"
         in2="SourceGraphic"
         id="feComposite76" />
    </filter>
    <filter
       style="color-interpolation-filters:sRGB;"
       inkscape:label="Drop Shadow"
       id="filter78"
       x="-0.10311464"
       y="-0.074068955"
       width="1.2277115"
       height="1.1635689">
      <feFlood
         result="flood"
         in="SourceGraphic"
         flood-opacity="0.498039"
         flood-color="rgb(0,0,0)"
         id="feFlood76" />
      <feGaussianBlur
         result="blur"
         in="SourceGraphic"
         stdDeviation="2.000000"
         id="feGaussianBlur76" />
      <feOffset
         result="offset"
         in="blur"
         dx="1.000000"
         dy="1.000000"
         id="feOffset76" />
      <feComposite
         result="comp1"
         operator="out"
         in="flood"
         in2="offset"
         id="feComposite77" />
      <feComposite
         result="comp2"
         operator="atop"
         in="comp1"
         in2="SourceGraphic"
         id="feComposite78" />
    </filter>
    <filter
       style="color-interpolation-filters:sRGB;"
       inkscape:label="Drop Shadow"
       id="filter80"
       x="-0.11314447"
       y="-0.075748384"
       width="1.2498607"
       height="1.1672777">
      <feFlood
         result="flood"
         in="SourceGraphic"
         flood-opacity="0.498039"
         flood-color="rgb(0,0,0)"
         id="feFlood78" />
      <feGaussianBlur
         result="blur"
         in="SourceGraphic"
         stdDeviation="2.000000"
         id="feGaussianBlur78" />
      <feOffset
         result="offset"
         in="blur"
         dx="1.000000"
         dy="1.000000"
         id="feOffset78" />
      <feComposite
         result="comp1"
         operator="out"
         in="flood"
         in2="offset"
         id="feComposite79" />
      <feComposite
         result="comp2"
         operator="atop"
         in="comp1"
         in2="SourceGraphic"
         id="feComposite80" />
    </filter>
    <filter
       style="color-interpolation-filters:sRGB;"
       inkscape:label="Drop Shadow"
       id="filter82"
       x="-0.11197563"
       y="-0.075812737"
       width="1.2472795"
       height="1.1674198">
      <feFlood
         result="flood"
         in="SourceGraphic"
         flood-opacity="0.498039"
         flood-color="rgb(0,0,0)"
         id="feFlood80" />
      <feGaussianBlur
         result="blur"
         in="SourceGraphic"
         stdDeviation="2.000000"
         id="feGaussianBlur80" />
      <feOffset
         result="offset"
         in="blur"
         dx="1.000000"
         dy="1.000000"
         id="feOffset80" />
      <feComposite
         result="comp1"
         operator="out"
         in="flood"
         in2="offset"
         id="feComposite81" />
      <feComposite
         result="comp2"
         operator="atop"
         in="comp1"
         in2="SourceGraphic"
         id="feComposite82" />
    </filter>
    <filter
       style="color-interpolation-filters:sRGB;"
       inkscape:label="Drop Shadow"
       id="filter84"
       x="-0.1285546"
       y="-0.054543325"
       width="1.2838914"
       height="1.1204498">
      <feFlood
         result="flood"
         in="SourceGraphic"
         flood-opacity="0.498039"
         flood-color="rgb(0,0,0)"
         id="feFlood82" />
      <feGaussianBlur
         result="blur"
         in="SourceGraphic"
         stdDeviation="2.000000"
         id="feGaussianBlur82" />
      <feOffset
         result="offset"
         in="blur"
         dx="1.000000"
         dy="1.000000"
         id="feOffset82" />
      <feComposite
         result="comp1"
         operator="out"
         in="flood"
         in2="offset"
         id="feComposite83" />
      <feComposite
         result="comp2"
         operator="atop"
         in="comp1"
         in2="SourceGraphic"
         id="feComposite84" />
    </filter>
    <filter
       style="color-interpolation-filters:sRGB;"
       inkscape:label="Drop Shadow"
       id="filter86"
       x="-0.33646435"
       y="-0.051054646"
       width="1.7430254"
       height="1.1127457">
      <feFlood
         result="flood"
         in="SourceGraphic"
         flood-opacity="0.498039"
         flood-color="rgb(0,0,0)"
         id="feFlood84" />
      <feGaussianBlur
         result="blur"
         in="SourceGraphic"
         stdDeviation="2.000000"
         id="feGaussianBlur84" />
      <feOffset
         result="offset"
         in="blur"
         dx="1.000000"
         dy="1.000000"
         id="feOffset84" />
      <feComposite
         result="comp1"
         operator="out"
         in="flood"
         in2="offset"
         id="feComposite85" />
      <feComposite
         result="comp2"
         operator="atop"
         in="comp1"
         in2="SourceGraphic"
         id="feComposite86" />
    </filter>
    <filter
       style="color-interpolation-filters:sRGB;"
       inkscape:label="Drop Shadow"
       id="filter88"
       x="-0.10511222"
       y="-0.074883665"
       width="1.2321228"
       height="1.1653681">
      <feFlood
         result="flood"
         in="SourceGraphic"
         flood-opacity="0.498039"
         flood-color="rgb(0,0,0)"
         id="feFlood86" />
      <feGaussianBlur
         result="blur"
         in="SourceGraphic"
         stdDeviation="2.000000"
         id="feGaussianBlur86" />
      <feOffset
         result="offset"
         in="blur"
         dx="1.000000"
         dy="1.000000"
         id="feOffset86" />
      <feComposite
         result="comp1"
         operator="out"
         in="flood"
         in2="offset"
         id="feComposite87" />
      <feComposite
         result="comp2"
         operator="atop"
         in="comp1"
         in2="SourceGraphic"
         id="feComposite88" />
    </filter>
    <filter
       style="color-interpolation-filters:sRGB;"
       inkscape:label="Drop Shadow"
       id="filter90"
       x="-0.067227593"
       y="-0.076279324"
       width="1.1484609"
       height="1.1684502">
      <feFlood
         result="flood"
         in="SourceGraphic"
         flood-opacity="0.498039"
         flood-color="rgb(0,0,0)"
         id="feFlood88" />
      <feGaussianBlur
         result="blur"
         in="SourceGraphic"
         stdDeviation="2.000000"
         id="feGaussianBlur88" />
      <feOffset
         result="offset"
         in="blur"
         dx="1.000000"
         dy="1.000000"
         id="feOffset88" />
      <feComposite
         result="comp1"
         operator="out"
         in="flood"
         in2="offset"
         id="feComposite89" />
      <feComposite
         result="comp2"
         operator="atop"
         in="comp1"
         in2="SourceGraphic"
         id="feComposite90" />
    </filter>
    <filter
       style="color-interpolation-filters:sRGB;"
       inkscape:label="Drop Shadow"
       id="filter92"
       x="-0.10257732"
       y="-0.05337801"
       width="1.2265249"
       height="1.1178764">
      <feFlood
         result="flood"
         in="SourceGraphic"
         flood-opacity="0.498039"
         flood-color="rgb(0,0,0)"
         id="feFlood90" />
      <feGaussianBlur
         result="blur"
         in="SourceGraphic"
         stdDeviation="2.000000"
         id="feGaussianBlur90" />
      <feOffset
         result="offset"
         in="blur"
         dx="1.000000"
         dy="1.000000"
         id="feOffset90" />
      <feComposite
         result="comp1"
         operator="out"
         in="flood"
         in2="offset"
         id="feComposite91" />
      <feComposite
         result="comp2"
         operator="atop"
         in="comp1"
         in2="SourceGraphic"
         id="feComposite92" />
    </filter>
    <filter
       style="color-interpolation-filters:sRGB"
       inkscape:label="Drop Shadow"
       id="filter88-5"
       x="-0.10511222"
       y="-0.074883665"
       width="1.2321228"
       height="1.1653681">
      <feFlood
         result="flood"
         in="SourceGraphic"
         flood-opacity="0.498039"
         flood-color="rgb(0,0,0)"
         id="feFlood86-0" />
      <feGaussianBlur
         result="blur"
         in="SourceGraphic"
         stdDeviation="2.000000"
         id="feGaussianBlur86-9" />
      <feOffset
         result="offset"
         in="blur"
         dx="1.000000"
         dy="1.000000"
         id="feOffset86-7" />
      <feComposite
         result="comp1"
         operator="out"
         in="flood"
         in2="offset"
         id="feComposite87-5" />
      <feComposite
         result="comp2"
         operator="atop"
         in="comp1"
         in2="SourceGraphic"
         id="feComposite88-3" />
    </filter>
  </defs>
  <sodipodi:namedview
     id="namedview1"
     pagecolor="#ffffff"
     bordercolor="#000000"
     borderopacity="0.25"
     inkscape:showpageshadow="2"
     inkscape:pageopacity="0.0"
     inkscape:pagecheckerboard="0"
     inkscape:deskcolor="#d1d1d1"
     showgrid="false"
     inkscape:zoom="1.4142136"
     inkscape:cx="187.02974"
     inkscape:cy="138.23938"
     inkscape:window-width="3440"
     inkscape:window-height="1417"
     inkscape:window-x="-8"
     inkscape:window-y="-8"
     inkscape:window-maximized="1"
     inkscape:current-layer="layer1"
     showguides="true" />
  <rect
     style="display:inline;fill:url(#linearGradient16);stroke:none;stroke-width:0.156;stroke-dasharray:none;paint-order:stroke markers fill"
     id="rect13"
     width="839.04596"
     height="357.14365"
     x="0.43929106"
     y="0.43929106"
     inkscape:label="Fundo"
     ry="51.836346" />
  <g
     inkscape:groupmode="layer"
     inkscape:label="Escrito"
     id="g1"
     style="display:inline">
    <path
       style="fill:#1babc6;fill-opacity:1;filter:url(#filter92)"
       d="m 573.11128,201.31062 c -14.61524,0 -23.06862,0.24799 -23.47105,-0.40315 -0.34821,-0.56342 -0.4791,-3.09717 -0.10101,-4.87125 0.37805,-1.77407 2.34302,-5.70059 4.36658,-8.72559 2.02356,-3.025 8.34197,-11.46447 13.65896,-19.21271 5.317,-7.74823 11.06318,-16.68108 12.54012,-19.6216 1.89223,-3.76736 2.77882,-7.26663 2.85275,-11.25154 0.058,-3.12409 -0.45685,-6.95075 -1.22736,-8.39565 -0.76713,-1.43853 -3.11013,-3.93587 -4.90113,-4.78575 -1.79103,-0.84989 -5.66931,-1.10775 -7.85454,-1.10775 -2.18523,0 -5.78815,0.61015 -8.20315,1.17233 -4.96786,1.15646 -7.18664,2.10732 -7.21218,2.0259 -1.3497,-4.30338 -1.35264,-4.26066 -2.94369,-10.08856 -0.0125,-0.0456 1.40284,-0.75175 4.79843,-2.14538 2.77558,-1.13916 6.94092,-2.10497 11.20951,-2.37891 4.01586,-0.25772 9.44904,0.0655 12.086,0.71902 2.63476,0.65296 6.51775,2.31868 8.62886,3.70158 2.47232,1.61952 4.58298,4.179 5.93059,7.19169 1.56222,3.4925 2.09019,6.70383 2.08422,12.67733 -0.006,6.20517 -0.56168,9.34612 -2.47593,14 -1.35736,3.3 -6.00742,11.4 -10.33347,18 -4.32605,6.6 -9.59819,14.35011 -11.71588,17.22248 l -3.85033,5.22247 14.41652,-0.0331 14.49418,-0.0331 0.0693,6.02655 0.14695,5.09469 z"
       id="path12"
       sodipodi:nodetypes="sssssssssssssssssscssscccccs" />
    <path
       style="fill:#1e2d4a;fill-opacity:1;filter:url(#filter90)"
       d="m 732.54665,201.27336 c -0.5026,-2.48566 -5.84253,-29.8759 -12.44266,-62.79699 -0.0232,-0.11583 3.68332,-0.0951 13.5619,-0.0234 l 6.47975,50.3155 c 3.18934,-15.68652 4.29864,-22.23203 10.0906,-50.3717 0.0124,-0.0604 5.09929,0.01 11.48531,-0.002 0.0428,-8e-5 7.70557,51.16334 8.29797,50.57094 0.59147,-0.59147 6.20447,-38.97485 8.70113,-50.54932 0.0135,-0.0626 2.75847,-0.0314 12.78225,-0.0353 0.0461,-2e-5 -6.66982,27.45294 -14.54481,62.88384 -0.0135,0.0609 -1.67882,0.0181 -14.66504,0.0299 -2.09477,-11.8328 -4.48805,-34.53458 -6.68423,-47.04303 -0.0595,-0.33861 -8.88227,47.02955 -8.93677,47.02962 -6.9272,0.009 -14.1254,-0.008 -14.1254,-0.008 z"
       id="path11"
       sodipodi:nodetypes="ssccsssssscssss" />
    <path
       style="fill:#1e2d4a;fill-opacity:1;filter:url(#filter86)"
       d="m 652.47917,201.28458 c 0,-32.87144 -0.47917,-59.90254 -0.47917,-90.02345 13.24674,-3.74028 14.22884,-4.03809 14.22908,-3.96521 0.10395,30.69802 -0.0411,93.99733 -0.0751,93.99736 -12.96199,0.008 -13.67523,0.0233 -13.67523,-0.009 z"
       id="path10"
       sodipodi:nodetypes="scssss" />
    <path
       style="fill:#1e2d4a;fill-opacity:1;filter:url(#filter84)"
       d="m 610.09825,201.3021 c 0.11382,-42.74552 0.0658,-87.92229 0.11926,-87.92239 17.28777,-0.0318 16.14991,-0.081 37.19864,-0.0445 0.0745,1.3e-4 -0.0232,0.44586 -0.881,12.55091 -8.63513,0.035 -9.71736,0.0409 -22.0213,-0.0206 -0.0113,11.9732 0.0322,12.8158 0.0266,26.50367 16.61257,0.017 19.94893,-0.0314 19.94908,0.011 0.0304,8.67952 0.013,8.32943 0.0104,12.43011 -12.12142,0.0211 -12.20177,0.0224 -19.9492,0.006 0.0553,12.8871 -0.008,13.90344 -0.004,36.46301 -7.30342,0.0113 -14.44878,0.0827 -14.44862,0.0227 z"
       id="path9"
       sodipodi:nodetypes="ssscccscccss" />
    <path
       style="fill:#1e2d4a;fill-opacity:1;filter:url(#filter80)"
       d="m 446.07984,201.52464 c -0.0777,-4.9e-4 -0.0828,-60.09295 0.0126,-60.11182 4.19194,-0.829 8.5816,-1.69001 12.70637,-2.44543 0.0487,-0.009 -0.0794,1.963 -0.0286,1.95121 2.00005,-0.46735 9.56724,-2.55678 10.66724,-2.61652 6.83766,-0.37132 8.54458,0.21101 11.38053,1.98562 2.00723,1.25603 4.16475,3.94225 5.46135,6.7996 0.97165,2.14126 1.58215,5.69321 1.59855,9.46459 0.146,33.58096 0.85821,44.92404 0.4336,44.92223 -7.01532,-0.03 -7.75801,-0.0153 -14.20923,-0.10544 0.0643,-14.55218 0.34939,-30.24768 0.0784,-45.18871 -0.0321,-1.76817 -0.73966,-2.80308 -1.80841,-3.94764 -1.06874,-1.14456 -2.32247,-1.96116 -3.2308,-1.97988 -1.27391,-0.0263 -4.02233,0.21855 -5.64145,0.65555 l -3.57452,0.96475 c 0.1196,16.5746 0.0127,33.10866 -0.11298,49.68787 -5.1793,0.007 -8.05384,-1.3e-4 -13.73267,-0.036 z"
       id="path7"
       sodipodi:nodetypes="ssssssssscssssccss" />
    <path
       style="fill:#1e2d4a;fill-opacity:1;filter:url(#filter88)"
       d="m 697.36747,202.52451 c -4.35662,0.24765 -7.90788,-0.13882 -10.49247,-1.09218 -2.2,-0.81149 -4.93645,-2.35675 -6.38655,-3.96863 -1.4501,-1.61187 -3.79448,-5.71189 -4.98057,-8.882 -1.18609,-3.17011 -2.34277,-9.05765 -2.6468,-13.2362 -0.30403,-4.17855 -0.007,-10.39737 0.58348,-13.97237 0.59056,-3.575 1.94964,-8.95327 3.4785,-11.95171 2.28892,-4.48907 3.5381,-5.94583 7.94879,-8.25 4.127,-2.15597 6.79275,-2.67329 11.40371,-2.67329 3.42606,0 6.99548,0.62476 8.93477,1.54502 1.86317,0.88413 4.69332,2.94447 6.36561,4.65493 1.84016,1.88216 3.75694,5.63177 4.95104,9.49782 1.42924,4.62736 1.90152,9.18383 1.87787,16.53257 -0.0228,7.07879 -0.82346,11.6472 -2.07215,15.26073 -0.98422,2.84821 -2.34145,6.65129 -3.62717,8.52767 -1.28572,1.87638 -3.84414,4.38135 -5.68538,5.64298 -2.45462,1.68194 -4.70892,2.08363 -9.65268,2.36466 z m -0.2106,-11.20939 c 1.11687,-0.33883 2.43661,-0.87007 3.31471,-1.63888 0.87809,-0.7688 2.74059,-3.19278 3.375,-5.31024 0.6344,-2.11745 1.36922,-8.8602 1.32738,-14.29639 -0.0418,-5.43619 -0.83001,-12.64648 -1.52232,-14.57148 -0.6923,-1.925 -2.54117,-4.34132 -3.95582,-5.14043 -2.04066,-1.15275 -4.7854,-1.15086 -6.80458,-0.23086 -1.39975,0.63777 -3.52472,2.57909 -4.49299,4.39044 -1.36725,2.55773 -2.14247,6.81288 -2.16674,15.35585 -0.0188,6.63356 0.49279,12.48733 1.28892,14.7469 0.72609,2.06079 3.03443,4.98479 4.21297,5.81027 1.20273,0.84243 4.28368,1.23061 5.42347,0.88482 z"
       id="path6"
       sodipodi:nodetypes="sssssssssssssssssssssssssssss" />
    <path
       style="display:inline;fill:#1e2d4a;fill-opacity:1;filter:url(#filter88-5)"
       d="m 416.82311,202.88376 c -4.35662,0.24765 -7.90788,-0.13882 -10.49247,-1.09218 -2.2,-0.81149 -4.93645,-2.35675 -6.38655,-3.96863 -1.4501,-1.61187 -3.79448,-5.71189 -4.98057,-8.882 -1.18609,-3.17011 -2.34277,-9.05765 -2.6468,-13.2362 -0.30403,-4.17855 -0.007,-10.39737 0.58348,-13.97237 0.59056,-3.575 1.94964,-8.95327 3.4785,-11.95171 2.28892,-4.48907 3.5381,-5.94583 7.94879,-8.25 4.127,-2.15597 6.79275,-2.67329 11.40371,-2.67329 3.42606,0 6.99548,0.62476 8.93477,1.54502 1.86317,0.88413 4.69332,2.94447 6.36561,4.65493 1.84016,1.88216 3.75694,5.63177 4.95104,9.49782 1.42924,4.62736 1.90152,9.18383 1.87787,16.53257 -0.0228,7.07879 -0.82346,11.6472 -2.07215,15.26073 -0.98422,2.84821 -2.34145,6.65129 -3.62717,8.52767 -1.28572,1.87638 -3.84414,4.38135 -5.68538,5.64298 -2.45462,1.68194 -4.70892,2.08363 -9.65268,2.36466 z m -0.2106,-11.20939 c 1.11687,-0.33883 2.43661,-0.87007 3.31471,-1.63888 0.87809,-0.7688 2.74059,-3.19278 3.375,-5.31024 0.6344,-2.11745 1.36922,-8.8602 1.32738,-14.29639 -0.0418,-5.43619 -0.83001,-12.64648 -1.52232,-14.57148 -0.6923,-1.925 -2.54117,-4.34132 -3.95582,-5.14043 -2.04066,-1.15275 -4.7854,-1.15086 -6.80458,-0.23086 -1.39975,0.63777 -3.52472,2.57909 -4.49299,4.39044 -1.36725,2.55773 -2.14247,6.81288 -2.16674,15.35585 -0.0188,6.63356 0.49279,12.48733 1.28892,14.7469 0.72609,2.06079 3.03443,4.98479 4.21297,5.81027 1.20273,0.84243 4.28368,1.23061 5.42347,0.88482 z"
       id="path6-5"
       sodipodi:nodetypes="sssssssssssssssssssssssssssss" />
    <path
       style="fill:#1e2d4a;fill-opacity:1;filter:url(#filter76)"
       d="m 372,203.22008 c -4.02451,-0.002 -8.36856,-0.73268 -11.40636,-1.91894 -2.69849,-1.05376 -6.22614,-3.17022 -7.83921,-4.70323 -1.61307,-1.533 -4.00042,-4.59732 -5.30523,-6.80959 -1.3048,-2.21227 -3.13801,-7.16227 -4.07379,-11 -1.16536,-4.77927 -1.70791,-11.23106 -1.72203,-20.47769 -0.0114,-7.425 0.56409,-16.2 1.27874,-19.5 0.71465,-3.3 2.21221,-7.8 3.32791,-10 1.1157,-2.2 3.15903,-5.4848 4.54074,-7.29955 1.38171,-1.81476 4.55703,-4.4979 7.05627,-5.96256 3.82485,-2.24151 5.97637,-2.71808 13.59351,-3.01102 5.69794,-0.21913 10.71605,0.15209 13.54945,1.00235 1.63347,0.49018 2.77944,0.97216 3.54482,1.52287 0.76538,0.55071 1.67847,1.06888 1.62067,1.21648 -1.43889,3.6747 -2.65441,6.3802 -4.04731,9.68405 -0.0652,0.15465 -1.05112,-0.33605 -2.01414,-0.65559 -0.92272,-0.30617 -1.85412,-0.59976 -3.58551,-0.84917 -1.70272,-0.24528 -4.41325,-0.74755 -6.45038,-0.6894 -3.20155,0.0914 -5.41833,0.13288 -6.78034,0.45234 -1.362,0.31947 -3.43831,1.44764 -4.63588,2.5645 -1.47435,1.37499 -3.59961,4.71423 -4.40362,6.9319 -0.79867,2.20292 -2.18577,8.50558 -2.62371,13.2513 -0.44351,4.80601 -0.66746,12.62562 -0.35537,17.14262 0.31211,4.517 0.89184,10.1213 1.55837,12.34596 0.66653,2.22467 2.58441,6.59502 4.397,8.71263 2.22791,2.60281 4.95775,4.40838 7.96491,5.25033 3.73,1.04434 5.45626,0.59262 10.03689,-0.32176 2.26404,-0.45193 4.06998,-0.79999 5.02963,-0.97749 2.10224,-0.38886 2.50909,-0.60415 2.54812,-0.4128 0.84192,4.12741 1.37753,6.80197 2.27041,10.83679 l -3.07452,1.11829 -2.5,0.85311 c -2.75,0.93843 -7.925,1.70488 -11.5,1.70323 z"
       id="path4"
       sodipodi:nodetypes="cssssssssssssssssssssssssssssccscc" />
    <path
       style="fill:#1e2d4a;fill-opacity:1;filter:url(#filter80)"
       d="m 499.11285,201.52464 c -0.0777,-4.9e-4 -0.0828,-60.09295 0.0126,-60.11182 4.19194,-0.829 8.5816,-1.69001 12.70637,-2.44543 0.0487,-0.009 -0.0794,1.963 -0.0286,1.95121 2.00005,-0.46735 9.56724,-2.55678 10.66724,-2.61652 6.83766,-0.37132 8.54458,0.21101 11.38053,1.98562 2.00723,1.25603 4.16475,3.94225 5.46135,6.7996 0.97165,2.14126 1.58215,5.69321 1.59855,9.46459 0.146,33.58096 0.85821,44.92404 0.4336,44.92223 -7.01532,-0.03 -7.75801,-0.0153 -14.20923,-0.10544 0.0643,-14.55218 0.34939,-30.24768 0.0784,-45.18871 -0.0321,-1.76817 -0.73966,-2.80308 -1.80841,-3.94764 -1.06874,-1.14456 -2.32247,-1.96116 -3.2308,-1.97988 -1.27391,-0.0263 -4.02233,0.21855 -5.64145,0.65555 l -3.57452,0.96475 c 0.1196,16.5746 0.0127,33.10866 -0.11298,49.68787 -5.1793,0.007 -8.05384,-1.3e-4 -13.73267,-0.036 z"
       id="path93"
       sodipodi:nodetypes="ssssssssscssssccss" />
  </g>
  <g
     inkscape:groupmode="layer"
     id="layer1"
     inkscape:label="Simbolo">
    <path
       style="display:inline;fill:#1babc6;fill-opacity:1;fill-rule:evenodd;filter:url(#filter67)"
       d="m 131.76826,152.1975 c -0.69754,-0.0622 -10.21947,-9.89396 -20.85353,-20.73939 C 100.18868,120.51887 91,111.30405 91,110.40466 c 0,-0.89939 14.5125,-16.0915 32.25,-33.760243 21.00623,-20.924802 33.8189,-32.935373 36.75,-34.449378 3.81195,-1.968991 6.02899,-3.027885 14.5,-3.053309 9.12054,-0.02737 10.43973,0.914838 15,3.465405 2.76434,1.546098 13.17368,10.712317 23.28022,20.5 12.62217,12.223947 16.3284,16.998686 17.24644,18.39158 0.1634,0.247924 0.4906,0.667798 0.54705,0.820043 0.0531,0.143309 -0.34914,0.07207 -0.85875,0.06583 -1.01115,-0.01237 -3.916,-0.176547 -6.19742,-0.342317 -3.24896,-0.236072 -8.08753,-0.590885 -10.9014,-0.234466 -2.81388,0.35642 -7.42462,1.747032 -10.24611,3.090249 -4.0435,1.924982 -11.92872,9.322171 -37.23174,34.927394 -17.65598,17.86685 -32.67249,32.43427 -33.37003,32.37205 z"
       id="path13"
       sodipodi:nodetypes="ssssssssssssssss" />
    <path
       style="display:inline;fill:#1e2d4a;fill-opacity:1;filter:url(#filter72)"
       d="m 243.05256,250.28542 c -0.85391,-0.0139 -18.32053,-16.55136 -38.81471,-36.75 -30.76231,-30.31869 -37.64096,-37.59697 -39.43383,-41.72479 -1.52385,-3.50845 -2.16033,-6.96126 -2.13361,-11.57454 0.0277,-4.7775 0.69291,-7.98131 2.43383,-11.72127 1.81308,-3.89497 7.62486,-10.42396 23.89576,-26.84465 17.28513,-17.44425 22.57822,-22.197607 27,-24.246804 3.75589,-1.740604 7.71977,-2.666392 12.5,-2.91945 5.38514,-0.28508 8.31494,0.123522 12.69992,1.771182 4.35629,1.636883 8.12793,4.396462 16,11.706652 5.66504,5.26069 18.23512,17.49929 27.93351,27.19689 9.75125,9.75045 18.52781,19.42 19.63426,21.63199 1.10045,2.2 2.53,6.56432 3.17677,9.69849 0.84252,4.08274 0.88716,7.26068 0.15744,11.20811 -0.56018,3.03029 -1.9958,7.44097 -3.19027,9.80151 -1.36387,2.69533 -12.98467,15.17273 -31.23913,33.54188 -15.98705,16.0875 -29.76602,29.23866 -30.61994,29.2248 z"
       id="path3"
       sodipodi:nodetypes="sssssssssssssssss" />
    <path
       style="display:inline;fill:#1babc6;fill-opacity:1;filter:url(#filter69)"
       d="m 136.5,256.67758 c -7.7,0.26789 -16.76872,0.1424 -20.15271,-0.27886 -4.64908,-0.57875 -7.09294,-1.51738 -10,-3.84075 C 104.23128,250.86682 89.157735,236.05683 72.850523,219.64688 43.994734,190.60932 43.15494,189.65202 41.47868,183.88559 c -1.179051,-4.056 -1.573606,-8.00417 -1.250778,-12.51611 0.259374,-3.62509 1.449268,-8.80128 2.644209,-11.50264 1.60281,-3.62342 6.702238,-9.05983 18.697634,-21.10131 8.942916,-8.97728 16.75711,-16.89684 17.472905,-16.89684 0.715795,0 10.087021,9.32143 21.04101,20.17413 10.95399,10.85271 21.15793,20.73723 21.17078,21.28698 0.009,0.39759 -5.11248,5.31554 -9.47936,9.71085 l -8.22493,8.27847 8.97493,9.06405 c 4.9362,4.98523 9.87492,9.58173 10.97492,10.21446 1.18626,0.68234 7.08585,1.19032 14.5,1.2485 10.71911,0.0841 13.2447,0.42527 17.72705,2.39456 2.87488,1.26306 6.97785,4.19586 9.11771,6.51734 2.13986,2.32147 4.47871,5.983 5.19744,8.13673 0.71873,2.15372 1.31263,6.66384 1.31979,10.02248 0.01,4.65141 -0.64257,7.44657 -2.73805,11.72959 -1.51309,3.09263 -4.40996,6.99389 -6.4375,8.66946 -2.02754,1.67556 -5.48644,3.90772 -7.68644,4.96035 -3.14373,1.50417 -6.99693,2.01813 -18,2.40094 z"
       id="path2"
       sodipodi:nodetypes="sssssssssssscsssssscssss" />
    <path
       style="display:inline;fill:#1e2d4a;fill-opacity:1;filter:url(#filter74)"
       d="m 176.09028,308.22043 c -3.62466,-0.0496 -8.10252,-0.52536 -9.95082,-1.05723 -1.84829,-0.53188 -5.0182,-2.01349 -7.04424,-3.29247 -2.02604,-1.27898 -9.8513,-8.53595 -17.38946,-16.1266 C 134.16759,280.15349 128,273.60224 128,273.18581 c 0,-0.41644 0.5625,-1.12121 1.25,-1.56617 0.6875,-0.44496 9.575,-1.05274 19.75,-1.35061 16.81626,-0.4923 18.90956,-0.75353 23,-2.87026 2.50231,-1.2949 10.78513,-8.54096 18.65788,-16.32245 7.78684,-7.69658 14.6279,-13.82996 15.20236,-13.62974 0.57446,0.20022 4.25056,3.49089 8.16912,7.3126 3.91855,3.82171 7.70176,8.09671 8.40713,9.5 0.70536,1.40329 1.53883,4.57644 1.85214,7.05144 0.31332,2.475 0.19963,6.525 -0.25263,9 -0.75156,4.11293 -2.0551,5.6857 -15.15467,18.28464 -10.11014,9.72378 -16.08055,14.65822 -20.26657,16.75 -4.87791,2.43752 -7.10728,2.94931 -12.52448,2.87517 z"
       id="path1" />
  </g>
</svg>
