<?xml version="1.0" encoding="utf-8"?>
<!-- Generator: Adobe Illustrator 16.0.0, SVG Export Plug-In . SVG Version: 6.00 Build 0)  -->
<!DOCTYPE svg PUBLIC "-//W3C//DTD SVG 1.1//EN" "http://www.w3.org/Graphics/SVG/1.1/DTD/svg11.dtd">
<svg version="1.1" id="Layer_1" xmlns="http://www.w3.org/2000/svg" xmlns:xlink="http://www.w3.org/1999/xlink" x="0px" y="0px"
	 width="50px" height="50px" viewBox="0 0 50 50" enable-background="new 0 0 50 50" xml:space="preserve">
<path d="M24.795,6.997c10.116-0.266,18.719,8.504,18.643,18.65c-0.077,10.34-8.367,18.752-18.696,18.656
	C13.992,44.206,6.11,35.939,6.083,25.596C6.056,15.057,14.664,6.81,24.795,6.997z M28.479,36.385
	c1.141,0.015,1.855-1.181,1.278-2.173c-0.162-0.281-0.411-0.518-0.645-0.752c-2.388-2.395-4.751-4.815-7.192-7.157
	c-0.697-0.668-0.594-1,0.033-1.608c2.49-2.42,4.93-4.893,7.379-7.354c0.771-0.774,0.826-1.692,0.176-2.312
	c-0.626-0.594-1.5-0.53-2.244,0.211c-3.019,3.005-6.031,6.015-9.035,9.033c-0.851,0.854-0.864,1.603-0.032,2.44
	c3.022,3.042,6.061,6.069,9.093,9.103C27.623,36.146,27.987,36.396,28.479,36.385z"/>
</svg>
