<?xml version="1.0" encoding="utf-8"?>
<!-- Generator: Adobe Illustrator 16.0.0, SVG Export Plug-In . SVG Version: 6.00 Build 0)  -->
<!DOCTYPE svg PUBLIC "-//W3C//DTD SVG 1.1//EN" "http://www.w3.org/Graphics/SVG/1.1/DTD/svg11.dtd">
<svg version="1.1" id="Layer_1" xmlns="http://www.w3.org/2000/svg" xmlns:xlink="http://www.w3.org/1999/xlink" x="0px" y="0px"
	 width="1200px" height="100px" viewBox="0 0 1200 100" enable-background="new 0 0 1200 100" xml:space="preserve">
<path fill="#D4D5D9" d="M43.422,31.981H53.69V19.248H43.422c-8.518,0-15.431,7.503-15.431,16.711v6.421H17.703v12.775h10.288v30.926
	h12.854V55.155H53.69V42.38H40.845v-6.539C40.845,33.636,42.196,31.981,43.422,31.981z"/>
<path fill="#D4D5D9" d="M139.801,69.01h-16.258c-2.254,0-4.177-0.796-5.753-2.378c-1.585-1.585-2.367-3.508-2.367-5.772v-8.137
	h24.378c2.265,0,4.195-0.811,5.807-2.422c1.611-1.611,2.419-3.55,2.419-5.8c0-2.254-0.808-4.188-2.431-5.8
	c-1.607-1.607-3.549-2.423-5.818-2.423h-24.355v-8.215c0-2.25-0.811-4.188-2.411-5.792c-1.601-1.615-3.527-2.419-5.77-2.419
	c-2.306,0-4.26,0.789-5.86,2.363c-1.6,1.585-2.404,3.546-2.404,5.863V60.87c0,6.772,2.404,12.557,7.212,17.364
	c4.808,4.809,10.596,7.205,17.365,7.205h16.253c2.257,0,4.188-0.801,5.8-2.42c1.611-1.6,2.419-3.541,2.419-5.795
	c0-2.259-0.808-4.188-2.419-5.801C143.997,69.816,142.066,69.01,139.801,69.01z"/>
<g>
	<path fill="#D4D5D9" d="M272.56,85.299c-5.971,0-10.83-4.865-10.83-10.834V41.082l33.012,19.812l33.012-19.812v33.383
		c0,5.969-4.859,10.834-10.83,10.834H272.56z"/>
	<path fill="#D4D5D9" d="M316.925,19.526H272.56c-5.829,0-10.574,4.748-10.574,10.567v4.6l32.756,19.665l32.753-19.665v-4.6
		C327.495,24.274,322.754,19.526,316.925,19.526z"/>
</g>
<g>
	<rect x="523.533" y="40.705" fill="#D4D5D9" width="12.899" height="45.146"/>
	<path fill="#D4D5D9" d="M572.775,43.277c-4.804-2.695-11.89-2.922-16.993-0.592v-1.98h-12.899v45.146h12.899V56.977l5.314-2.557
		c1.305-0.627,4.161-0.57,5.37,0.11c0.914,0.51,2.214,2.62,2.214,3.911v27.41h12.899v-27.41
		C581.58,52.516,577.877,46.134,572.775,43.277z"/>
	<path fill="#D4D5D9" d="M529.983,19.743c-4.459,0-8.062,3.609-8.062,8.063c0,4.454,3.604,8.062,8.062,8.062
		s8.062-3.608,8.062-8.062C538.045,23.352,534.442,19.743,529.983,19.743z"/>
</g>
<path fill="#D4D5D9" d="M604.889,39.543l2.691,3.528c0,0,5.548-4.373,7.396-2.187c1.852,2.187,8.911,28.593,11.27,33.464
	c2.057,4.271,7.731,9.918,13.955,5.885c6.219-4.032,26.901-21.689,30.604-42.543c3.699-20.846-24.89-16.479-27.917,1.683
	c7.568-4.544,11.608,1.847,7.735,9.081c-3.866,7.229-7.398,11.941-9.248,11.941c-1.847,0-3.268-4.836-5.382-13.291
	c-2.188-8.74-2.174-24.483-11.265-22.699C616.156,26.088,604.889,39.543,604.889,39.543z"/>
<path fill="#D4D5D9" d="M727.24,20.018v15.107h15.103v11.659H727.24v16.749c0,3.79-0.049,5.974,0.353,7.048
	c0.397,1.069,1.397,2.179,2.487,2.819c1.447,0.867,3.097,1.301,4.957,1.301c3.307,0,6.598-1.075,9.867-3.225v10.301
	c-2.787,1.312-5.317,2.236-7.58,2.769c-2.265,0.524-4.711,0.791-7.34,0.791c-2.986,0-4.749-0.375-7.043-1.126
	c-2.294-0.757-4.253-1.837-5.869-3.225c-1.624-1.397-2.744-2.883-3.371-4.454s-0.939-3.854-0.939-6.841V46.784h-8.874v-9.249
	c2.565-0.832,5.54-2.028,7.366-3.583c1.834-1.56,3.302-3.426,4.408-5.609c1.108-2.179,1.872-4.957,2.288-8.325H727.24z"/>
<path fill="#D4D5D9" d="M839.102,57.037c0.182-1.338,0.285-2.697,0.285-4.082c0-16.608-13.537-30.073-30.231-30.073
	c-1.659,0-3.287,0.136-4.869,0.396c-2.838-1.85-6.217-2.927-9.853-2.927c-9.969,0-18.04,8.076-18.04,18.042
	c0,3.626,1.067,6.994,2.905,9.822c-0.248,1.546-0.375,3.128-0.375,4.74c0,16.611,13.53,30.075,30.23,30.075
	c1.885,0,3.721-0.185,5.503-0.505c2.771,1.719,6.036,2.719,9.535,2.719c9.966,0,18.04-8.078,18.04-18.043
	C842.232,63.434,841.08,59.932,839.102,57.037z M811.98,75.12c-9.607,0.5-14.104-1.625-18.222-5.489
	c-4.6-4.316-2.752-9.24,0.995-9.49c3.745-0.25,5.993,4.244,7.992,5.495c1.996,1.245,9.593,4.084,13.604-0.503
	c4.368-4.992-2.904-7.576-8.236-8.357c-7.613-1.127-17.227-5.246-16.479-13.361c0.748-8.111,6.892-12.27,13.354-12.856
	c8.238-0.748,13.604,1.248,17.847,4.869c4.906,4.183,2.251,8.858-0.875,9.235c-3.113,0.374-6.609-6.88-13.475-6.989
	c-7.076-0.111-11.858,7.363-3.123,9.488c8.739,2.122,18.1,2.994,21.47,10.983C830.208,66.134,821.594,74.619,811.98,75.12z"/>
<g>
	<path fill="#D4D5D9" d="M380.658,39.435c-0.27,0-0.489,0.071-0.659,0.218c-0.167,0.146-0.253,0.338-0.253,0.574v5.905
		c0,0.298,0.08,0.526,0.237,0.69c0.156,0.163,0.383,0.244,0.675,0.244c0.3,0,0.538-0.084,0.715-0.248
		c0.178-0.168,0.265-0.396,0.265-0.687v-5.905c0-0.236-0.09-0.428-0.269-0.574C381.188,39.506,380.951,39.435,380.658,39.435z"/>
	<path fill="#D4D5D9" d="M399.64,19.925h-37.882c-7.871,0-14.31,6.439-14.31,14.311v37.342c0,7.871,6.439,14.311,14.31,14.311
		h37.882c7.871,0,14.311-6.438,14.311-14.311V34.235C413.95,26.364,407.511,19.925,399.64,19.925z M385.691,37.829h2.211v8.312
		c0,0.257,0.051,0.442,0.144,0.557c0.09,0.115,0.242,0.174,0.449,0.174c0.162,0,0.37-0.077,0.619-0.229
		c0.248-0.153,0.476-0.347,0.681-0.585v-8.229h2.216V48.67h-2.216v-1.197c-0.404,0.44-0.829,0.779-1.273,1.009
		c-0.441,0.23-0.869,0.346-1.284,0.346c-0.516,0-0.898-0.162-1.159-0.485c-0.258-0.322-0.388-0.807-0.388-1.452V37.829z
		 M377.467,40.309c0-0.841,0.298-1.51,0.895-2.007c0.595-0.497,1.398-0.746,2.403-0.746c0.917,0,1.668,0.263,2.256,0.788
		c0.582,0.523,0.875,1.199,0.875,2.026v5.6c0,0.928-0.287,1.653-0.859,2.183c-0.576,0.527-1.365,0.792-2.372,0.792
		c-0.969,0-1.745-0.274-2.325-0.817c-0.581-0.545-0.872-1.278-0.872-2.199L377.467,40.309L377.467,40.309z M371.435,33.975
		l1.619,5.874h0.157l1.542-5.874h2.535l-2.902,8.599v6.097h-2.493V42.85l-2.969-8.874L371.435,33.975L371.435,33.975z
		 M400.566,63.816c0,4.418-3.58,7.998-7.997,7.998h-23.743c-4.417,0-7.997-3.58-7.997-7.998v-3.875c0-4.416,3.58-7.996,7.997-7.996
		h23.743c4.417,0,7.997,3.58,7.997,7.996V63.816z"/>
	<g>
		<path fill="#D4D5D9" d="M373.86,54.374h-6.696v1.906h2.257v11.222h2.182V56.28h2.257V54.374L373.86,54.374z"/>
		<path fill="#D4D5D9" d="M378.304,65.173c-0.183,0.209-0.382,0.384-0.602,0.519c-0.217,0.138-0.399,0.205-0.539,0.205
			c-0.182,0-0.314-0.051-0.397-0.155c-0.079-0.101-0.121-0.267-0.121-0.495v-7.432h-1.936v8.101c0,0.578,0.115,1.008,0.34,1.298
			c0.229,0.289,0.563,0.432,1.013,0.432c0.363,0,0.737-0.101,1.123-0.309c0.389-0.206,0.759-0.502,1.119-0.896v1.063h1.936v-9.688
			h-1.936L378.304,65.173L378.304,65.173z"/>
		<path fill="#D4D5D9" d="M386.778,58.314c-0.322-0.409-0.79-0.616-1.403-0.616c-0.301,0-0.598,0.075-0.894,0.229
			c-0.29,0.152-0.567,0.382-0.829,0.673v-4.226h-1.957v13.128h1.957V66.76c0.252,0.297,0.531,0.516,0.828,0.654
			c0.294,0.145,0.631,0.211,1.012,0.211c0.573,0,1.014-0.182,1.316-0.547c0.304-0.366,0.456-0.893,0.456-1.578v-5.375
			C387.263,59.332,387.102,58.729,386.778,58.314z M385.269,65.234c0,0.312-0.058,0.531-0.167,0.666
			c-0.112,0.139-0.285,0.205-0.523,0.205c-0.164,0-0.318-0.035-0.467-0.104c-0.149-0.068-0.303-0.186-0.459-0.341v-6.035
			c0.132-0.135,0.264-0.233,0.399-0.295c0.135-0.065,0.272-0.095,0.411-0.095c0.26,0,0.462,0.082,0.603,0.25
			c0.137,0.17,0.204,0.418,0.204,0.746L385.269,65.234L385.269,65.234z"/>
		<path fill="#D4D5D9" d="M393.977,62.891V60.42c0-0.917-0.237-1.62-0.713-2.109c-0.476-0.49-1.158-0.735-2.044-0.735
			c-0.867,0-1.571,0.264-2.119,0.793c-0.548,0.528-0.824,1.216-0.824,2.053v4.353c0,0.933,0.252,1.666,0.749,2.196
			c0.497,0.532,1.181,0.798,2.048,0.798c0.965,0,1.69-0.248,2.172-0.748c0.489-0.504,0.73-1.254,0.73-2.246v-0.498h-1.992v0.442
			c0,0.568-0.066,0.937-0.192,1.103c-0.128,0.169-0.352,0.253-0.674,0.253c-0.309,0-0.527-0.097-0.657-0.294
			c-0.126-0.197-0.188-0.551-0.188-1.062v-1.827H393.977z M390.274,60.404c0-0.404,0.064-0.697,0.2-0.868
			c0.135-0.181,0.354-0.267,0.663-0.267c0.294,0,0.513,0.086,0.644,0.267c0.135,0.171,0.204,0.464,0.204,0.868v0.979h-1.71
			L390.274,60.404L390.274,60.404z"/>
	</g>
</g>
<path fill="#D4D5D9" d="M485.517,19.747h-37.882c-7.871,0-14.31,6.439-14.31,14.311V71.4c0,7.871,6.438,14.311,14.31,14.311h37.882
	c7.871,0,14.311-6.439,14.311-14.311V34.058C499.827,26.187,493.387,19.747,485.517,19.747z M454.277,62.234
	c-5.25,0-9.503-4.252-9.503-9.504c0-5.254,4.253-9.507,9.503-9.507s9.507,4.253,9.507,9.507
	C463.784,57.982,459.527,62.234,454.277,62.234z M478.87,62.234c-5.25,0-9.507-4.252-9.507-9.504c0-5.254,4.257-9.507,9.507-9.507
	c5.249,0,9.507,4.253,9.507,9.507C488.377,57.982,484.119,62.234,478.87,62.234z"/>
<path fill="#D4D5D9" d="M915.498,61.371l1.754,1.755l-17.223,17.226l-14.998-14.994c-6.748-0.101-12.191-5.592-12.191-12.366
	c0-6.833,5.541-12.373,12.376-12.373c5.438,0,10.047,3.513,11.707,8.389l3.106-3.105l7.397,7.4l20.102-21.26
	c0.159,0.591,0.281,1.196,0.349,1.817v-0.226c0-7.87-6.439-14.31-14.311-14.31h-37.883c-7.869,0-14.31,6.438-14.31,14.31v37.344
	c0,7.869,6.439,14.31,14.31,14.31h37.883c7.871,0,14.311-6.438,14.311-14.31V51.323L915.498,61.371z"/>
<path fill="#D4D5D9" d="M927.877,34.224l-28.339,29.975l-4.425-7.375c0.462-1.19,0.725-2.479,0.725-3.833
	c0-5.863-4.756-10.62-10.622-10.62s-10.62,4.757-10.62,10.62c0,5.866,4.754,10.622,10.62,10.622c1.271,0,2.483-0.234,3.612-0.645
	l10.321,9.414l28.782-23.361V34.78C927.933,34.59,927.887,34.412,927.877,34.224z"/>
<g>
	<path fill="#D4D5D9" d="M968.869,73.188c-1.785-0.578-3.75-0.918-5.857-0.939c-6.586-0.072-12.424,3.001-15.112,7.275
		c0.854,3.679,4.145,6.422,8.081,6.422h22.992c0.019-0.301,0.037-0.6,0.037-0.904c0-0.829-0.102-1.641-0.287-2.427
		C977.729,78.727,973.773,76.596,968.869,73.188z"/>
	<path fill="#D4D5D9" d="M972.762,43.04c-1.047-7.964-6.233-14.497-12.298-14.68c-6.062-0.18-10.13,5.915-9.083,13.88
		c1.047,7.963,6.812,13.525,12.875,13.709C970.318,56.13,973.807,51.004,972.762,43.04z"/>
	<path fill="#D4D5D9" d="M947.676,72.682c3.452-1.906,7.65-3.092,12.373-3.092c1.425,0,2.73-0.037,4.082-0.037
		c-1.789-1.738-3.234-3.238-3.234-5.869c0-1.561,0.498-3.049,1.193-4.385c-0.711,0.051-1.436,0.09-2.182,0.09
		c-5.201,0-9.337-1.781-12.232-4.682V72.682z"/>
	<path fill="#D4D5D9" d="M1014.109,36.119v-8.304c0-4.587-3.72-8.304-8.306-8.304H955.98c-4.586,0-8.306,3.717-8.306,8.304v3.607
		c3.863-4.021,9.713-6.722,16.177-6.722c5.885,0,22.5,0,22.5,0l-5.027,5.277h-5.906c4.168,2.388,6.384,7.304,6.384,12.723
		c0,4.975-2.756,8.981-6.648,12.024c-3.798,2.967-4.519,4.209-4.519,6.733c0,2.151,4.539,5.36,6.625,6.925
		c7.267,5.45,8.736,8.878,8.736,15.694c0,0.624-0.062,1.245-0.161,1.864h19.97c4.586,0,8.306-3.717,8.306-8.303V41.31h-10.382
		v10.379h-5.188V41.31h-10.381v-5.19h10.381V25.74h5.188v10.38L1014.109,36.119L1014.109,36.119z"/>
</g>
<g id="g3190_1_" transform="matrix(0.25518027,0,0,0.25518027,725.51706,114.99995)">
	<path id="path3184_1_" fill="#D4D5D9" d="M1342.23-375.118c-71.426,0-107.438,51.208-107.438,93.913
		c0,25.855,9.789,48.859,30.784,57.431c3.444,1.408,6.529,0.05,7.524-3.762c0.697-2.641,2.342-9.296,3.073-12.066
		c1.007-3.77,0.616-5.094-2.162-8.377c-6.054-7.145-9.92-16.387-9.92-29.483c0-37.994,28.423-72.004,74.013-72.004
		c40.378,0,62.555,24.669,62.555,57.611c0,43.348-19.188,79.934-47.661,79.934c-15.725,0-27.5-13.008-23.723-28.959
		c4.516-19.047,13.268-39.601,13.268-53.348c0-12.304-6.605-22.568-20.275-22.568c-16.077,0-28.989,16.632-28.989,38.912
		c0,14.19,4.792,23.788,4.792,23.788s-16.452,69.712-19.334,81.92c-5.748,24.313-0.865,54.117-0.452,57.129
		c0.241,1.783,2.533,2.208,3.574,0.861c1.481-1.936,20.627-25.576,27.141-49.195c1.837-6.69,10.57-41.323,10.57-41.323
		c5.224,9.962,20.49,18.737,36.723,18.737c48.327,0,81.116-44.056,81.116-103.029
		C1437.406-333.588,1399.634-375.118,1342.23-375.118z"/>
</g>
<path fill="#D4D5D9" d="M1170.944,19.516h-37.884c-7.869,0-14.31,6.439-14.31,14.31v37.343c0,7.87,6.438,14.31,14.31,14.31h37.884
	c7.87,0,14.31-6.438,14.31-14.31V33.825C1185.254,25.955,1178.814,19.516,1170.944,19.516z M1151.007,33.311
	c0.327-0.017,0.661,0,0.992,0s0.665-0.017,0.993,0c1.636,0.083,3.219,0.375,4.721,0.842c2.412,0.75,4.627,1.947,6.527,3.519
	l-3.31,9.985L1144,35.085C1146.158,34.09,1148.504,33.438,1151.007,33.311z M1132.992,55.234c-0.129-0.896-0.182-1.805-0.182-2.736
	c0-6.8,3.54-12.739,8.872-16.15l8.181,6.226L1132.992,55.234z M1133.413,57.22l8.511-5.805l6.707,19.97
	C1141.186,70.066,1135.248,64.475,1133.413,57.22z M1151.999,71.686c-0.261,0-0.522,0.01-0.782,0c-0.002-0.011,0.004-0.02,0-0.029
	l-3.397-10.104l0,0h3.76h17.323C1165.664,67.581,1159.322,71.686,1151.999,71.686z M1171.188,52.498c0,0.331,0.017,0.665,0,0.992
	c-0.084,1.637-0.375,3.219-0.843,4.722c-0.105,0.341-0.237,0.661-0.359,0.993c-0.002,0.002-0.029-0.003-0.03,0h-10.346l6.255-19.939
	l0,0l0,0l0,0c3.08,3.224,5.083,7.489,5.323,12.24C1171.203,51.833,1171.188,52.167,1171.188,52.498z"/>
<g>
	<path fill="#D4D5D9" d="M226.153,19.397h-32.949c-9.25,0-16.775,7.525-16.775,16.774V69.12c0,9.251,7.525,16.774,16.775,16.774
		h32.949c9.251,0,16.774-7.523,16.774-16.774V36.171C242.927,26.922,235.404,19.397,226.153,19.397z M235.691,69.121
		c0,5.26-4.279,9.538-9.539,9.538l-32.949,0.001c-5.258,0-9.538-4.279-9.538-9.539v-32.95c0-5.258,4.279-9.538,9.538-9.538h32.949
		c5.26,0,9.539,4.279,9.539,9.538V69.121z"/>
	<path fill="#D4D5D9" d="M227.355,39.061c-2.236,0-4.053-1.817-4.053-4.052c0-2.235,1.817-4.053,4.053-4.053
		c2.235,0,4.052,1.818,4.052,4.053C231.407,37.244,229.59,39.061,227.355,39.061L227.355,39.061z"/>
	<path fill="#D4D5D9" d="M209.677,35.519c-9.442,0-17.125,7.684-17.125,17.126c0,9.444,7.683,17.127,17.125,17.127
		c9.444,0,17.127-7.683,17.127-17.127C226.804,43.203,219.121,35.519,209.677,35.519z M209.677,62.537
		c-5.451,0-9.89-4.438-9.89-9.892c0-5.451,4.439-9.888,9.89-9.888c5.454,0,9.89,4.437,9.89,9.888
		C219.566,58.099,215.131,62.537,209.677,62.537z"/>
</g>
</svg>
