<?xml version="1.0" encoding="utf-8"?>
<!-- Generator: Adobe Illustrator 16.0.0, SVG Export Plug-In . SVG Version: 6.00 Build 0)  -->
<!DOCTYPE svg PUBLIC "-//W3C//DTD SVG 1.0//EN" "http://www.w3.org/TR/2001/REC-SVG-20010904/DTD/svg10.dtd">
<svg version="1.0" id="Layer_1" xmlns="http://www.w3.org/2000/svg" xmlns:xlink="http://www.w3.org/1999/xlink" x="0px" y="0px"
	 width="50px" height="50px" viewBox="0 0 50 50" enable-background="new 0 0 50 50" xml:space="preserve">
<path fill-rule="evenodd" clip-rule="evenodd" d="M24.726,44.299c-10.116,0.265-18.718-8.504-18.642-18.65
	C6.161,15.309,14.451,6.897,24.78,6.992c10.749,0.098,18.631,8.365,18.658,18.708C43.465,36.239,34.857,44.486,24.726,44.299z
	 M21.042,14.911c-1.141-0.014-1.856,1.181-1.279,2.173c0.163,0.281,0.412,0.518,0.645,0.752c2.388,2.395,4.751,4.816,7.191,7.157
	c0.698,0.668,0.595,1-0.032,1.609c-2.491,2.42-4.931,4.892-7.38,7.354c-0.771,0.775-0.826,1.692-0.176,2.311
	c0.626,0.595,1.5,0.531,2.245-0.21c3.018-3.005,6.03-6.015,9.034-9.033c0.851-0.855,0.865-1.603,0.032-2.441
	c-3.022-3.042-6.061-6.069-9.093-9.102C21.898,15.151,21.534,14.9,21.042,14.911z"/>
</svg>
