<?xml version="1.0" encoding="utf-8"?>
<!-- Generator: Adobe Illustrator 16.0.0, SVG Export Plug-In . SVG Version: 6.00 Build 0)  -->
<!DOCTYPE svg PUBLIC "-//W3C//DTD SVG 1.1//EN" "http://www.w3.org/Graphics/SVG/1.1/DTD/svg11.dtd">
<svg version="1.1" id="Layer_1" xmlns="http://www.w3.org/2000/svg" xmlns:xlink="http://www.w3.org/1999/xlink" x="0px" y="0px"
	 width="110px" height="30px" viewBox="0 0 110 30" enable-background="new 0 0 110 30" xml:space="preserve">
<path fill="#FFFFFF" d="M40.552,1.288c-7.103,0-12.862,5.76-12.862,12.865c0,7.102,5.76,12.861,12.862,12.861
	c7.104,0,12.864-5.76,12.864-12.861C53.416,7.048,47.656,1.288,40.552,1.288z M37.044,19.792V7.837l10.015,5.979L37.044,19.792z"/>
<g>
	<polygon fill="#FFFFFF" points="89.757,20.671 89.757,8.716 99.771,14.694 	"/>
	<polygon fill="#FFFFFF" points="97.222,20.671 97.222,8.716 107.236,14.694 	"/>
</g>
<g>
	<polygon fill="#FFFFFF" points="22.468,8.716 22.468,20.671 12.453,14.692 	"/>
	<polygon fill="#FFFFFF" points="15.003,8.716 15.003,20.671 4.988,14.692 	"/>
</g>
<path fill="#FFFFFF" d="M70.712,2.046c-7.104,0-12.863,5.76-12.863,12.865c0,7.102,5.76,12.861,12.863,12.861
	s12.863-5.76,12.863-12.861C83.575,7.806,77.815,2.046,70.712,2.046z M69.124,22.522c0,0.646-0.725,1.17-1.621,1.17
	s-1.621-0.523-1.621-1.17V7.298c0-0.646,0.725-1.17,1.621-1.17s1.621,0.523,1.621,1.17V22.522z M75.542,22.522
	c0,0.646-0.725,1.17-1.621,1.17c-0.895,0-1.621-0.523-1.621-1.17V7.298c0-0.646,0.727-1.17,1.621-1.17
	c0.896,0,1.621,0.523,1.621,1.17V22.522z"/>
</svg>
