<?xml version="1.0" standalone="no"?>
<!DOCTYPE svg PUBLIC "-//W3C//DTD SVG 20010904//EN"
 "http://www.w3.org/TR/2001/REC-SVG-20010904/DTD/svg10.dtd">
<svg version="1.0" xmlns="http://www.w3.org/2000/svg"
 width="700.000000pt" height="700.000000pt" viewBox="0 0 700.000000 700.000000"
 preserveAspectRatio="xMidYMid meet">
<metadata>
Created by potrace 1.14, written by Peter Selinger 2001-2017
</metadata>
<g transform="translate(0.000000,700.000000) scale(0.100000,-0.100000)"
fill="#000000" stroke="none">
<path d="M5457 6574 c-2 -2 -93 -19 -162 -29 -11 -2 -33 -6 -50 -9 -16 -3 -48
-8 -70 -11 -38 -6 -60 -9 -115 -20 -14 -3 -38 -7 -55 -10 -79 -11 -199 -30
-252 -40 -16 -3 -44 -8 -63 -10 -19 -3 -62 -10 -95 -15 -88 -14 -265 -41 -304
-46 -19 -2 -46 -6 -61 -9 -15 -3 -43 -7 -63 -9 -20 -3 -52 -7 -69 -10 -18 -3
-51 -8 -73 -11 -22 -3 -51 -7 -65 -10 -14 -2 -47 -7 -75 -10 -27 -3 -57 -8
-65 -10 -8 -2 -42 -6 -75 -10 -33 -3 -85 -10 -115 -15 -30 -5 -82 -12 -115
-16 -33 -3 -69 -8 -80 -9 -11 -2 -42 -6 -70 -9 -27 -4 -66 -9 -85 -11 -19 -3
-54 -7 -77 -10 -80 -9 -128 -15 -203 -25 -41 -5 -102 -12 -135 -15 -33 -3 -71
-8 -85 -10 -14 -3 -52 -7 -85 -10 -33 -3 -71 -8 -85 -10 -14 -2 -56 -7 -95
-11 -38 -3 -78 -8 -87 -9 -9 -2 -49 -7 -90 -10 -40 -4 -84 -9 -98 -10 -14 -1
-59 -6 -100 -10 -41 -4 -87 -8 -103 -10 -15 -2 -62 -7 -105 -10 -42 -4 -88 -8
-102 -10 -14 -2 -59 -7 -100 -10 -41 -3 -91 -8 -110 -10 -61 -7 -153 -15 -225
-20 -38 -3 -90 -7 -115 -9 -25 -3 -81 -8 -125 -11 -44 -3 -98 -8 -120 -10 -22
-2 -85 -7 -140 -10 -55 -4 -116 -8 -135 -10 -19 -2 -89 -7 -155 -11 -66 -3
-131 -8 -145 -9 -14 -2 -37 -3 -51 -4 l-26 -1 0 -2776 0 -2775 86 6 c47 3 118
8 158 10 65 3 134 8 313 20 114 8 224 16 270 20 25 2 83 6 130 10 47 3 110 8
140 10 30 2 84 7 120 9 36 3 97 8 135 12 39 3 90 7 115 9 49 3 171 13 235 20
38 4 89 8 230 20 33 3 80 7 105 10 60 7 131 13 210 20 36 3 85 7 110 10 25 3
70 7 100 10 30 3 75 7 100 10 25 3 70 7 100 10 30 3 75 7 100 10 25 2 68 7 95
10 28 3 66 7 85 10 19 2 62 7 95 10 33 3 78 7 100 10 22 3 60 7 85 10 25 2
126 14 225 25 99 12 200 23 225 26 25 2 63 7 85 10 22 2 60 7 85 10 25 2 81 9
125 15 44 5 96 12 115 14 19 3 58 7 85 10 28 3 61 8 75 10 14 3 52 7 85 11 33
3 69 8 80 10 11 2 61 9 110 14 50 6 101 13 115 15 34 5 96 14 150 20 25 3 56
8 70 10 14 2 63 9 110 15 47 6 99 13 115 16 288 40 397 55 430 60 22 3 65 9
95 14 30 5 75 12 100 15 50 7 280 41 326 49 16 3 65 10 109 16 44 6 85 13 91
15 8 2 4 38 -13 117 -13 62 -26 124 -28 138 -2 14 -18 93 -36 175 -17 83 -33
161 -35 175 -2 14 -9 45 -14 70 -6 25 -13 56 -15 70 -3 14 -7 36 -10 50 -3 14
-7 34 -9 45 -2 11 -18 88 -35 170 -16 83 -32 161 -35 175 -9 45 -124 605 -131
640 -2 8 -4 20 -4 26 -1 6 -7 11 -13 11 -7 0 -35 3 -63 7 -338 46 -624 174
-815 365 -343 344 -327 807 39 1171 128 127 215 191 366 268 114 59 108 51 95
108 -7 27 -13 58 -16 69 -2 11 -29 144 -60 295 -30 151 -58 285 -60 296 -2 12
-13 66 -25 120 -11 55 -23 110 -25 124 -5 22 -59 294 -70 345 -2 11 -22 110
-45 220 -23 110 -42 207 -44 215 -2 13 -38 24 -48 14z"/>
</g>
</svg>
